<svg width="1440" height="1104" viewBox="0 0 1440 1104" fill="#000000" xmlns="http://www.w3.org/2000/svg">
<g clip-path="url(#clip0_293_1799)">
<path d="M28.1361 154.175L52.3466 129.932C40.749 117.582 32.426 102.526 28.1361 86.1362C23.8512 102.538 15.528 117.605 3.92561 129.964L28.1033 154.175H28.1361ZM32.7289 158.801L32.7617 158.833H23.4449L-0.73278 134.623C-13.092 146.225 -28.1596 154.548 -44.561 158.833H-67V155.487C-44.0392 154.729 -22.1347 145.659 -5.35836 129.964L-67 68.3228V52.4449L-5.39117 -9.16392C-22.1639 -24.8395 -44.0549 -33.8967 -67 -34.6538V-38H-44.561C-28.1713 -33.7101 -13.1155 -25.3871 -0.765579 -13.7895L23.4449 -38H32.7617L57.005 -13.7895C69.3642 -25.3919 84.4318 -33.7151 100.833 -38H129.833V52.4777V52.4449V158.833H100.833C84.4136 154.535 69.3336 146.188 56.9722 134.557L32.7289 158.833V158.801ZM28.1361 -33.3744L3.86 -9.16392C15.4909 3.19753 23.8373 18.2775 28.1361 34.6971C32.421 18.2957 40.7442 3.22814 52.3466 -9.13111L28.1361 -33.4072V-33.3744ZM123.272 -34.7194C100.291 -33.9511 78.3728 -24.8573 61.5978 -9.13111L123.272 52.4777V-34.6538V-34.7194ZM57.005 -4.53833C41.3027 12.2464 32.2327 34.1638 31.4823 57.1361H118.614L57.005 -4.50553V-4.53833ZM31.4823 63.6972C32.2316 86.6537 41.2892 108.558 56.9722 125.339L118.614 63.6972H31.4823ZM61.5978 129.964C78.3728 145.691 100.291 154.784 123.272 155.553V68.29L61.5978 129.932V129.964ZM-0.73278 125.372C14.9695 108.587 24.0396 86.6695 24.7899 63.6972H-62.3744L-0.699974 125.372H-0.73278ZM24.7899 57.1361C24.0396 34.1638 14.9695 12.2464 -0.73278 -4.53833L-62.3744 57.1361H24.7899Z" fill="#932902" fill-opacity="0.9"/>
</g>
<g clip-path="url(#clip1_293_1799)">
<path d="M224.969 154.175L249.18 129.932C237.582 117.582 229.259 102.526 224.969 86.1362C220.685 102.538 212.361 117.605 200.759 129.964L224.937 154.175H224.969ZM229.562 158.801L229.595 158.833H220.278L196.101 134.623C183.741 146.225 168.674 154.548 152.272 158.833H129.833V155.487C152.794 154.729 174.699 145.659 191.475 129.964L129.833 68.3228V52.4449L191.442 -9.16392C174.669 -24.8395 152.778 -33.8967 129.833 -34.6538V-38H152.272C168.662 -33.7101 183.718 -25.3871 196.068 -13.7895L220.278 -38H229.595L253.838 -13.7895C266.198 -25.3919 281.265 -33.7151 297.667 -38H326.667V52.4777V52.4449V158.833H297.667C281.247 154.535 266.167 146.188 253.806 134.557L229.562 158.833V158.801ZM224.969 -33.3744L200.693 -9.16392C212.324 3.19753 220.671 18.2775 224.969 34.6971C229.254 18.2957 237.578 3.22814 249.18 -9.13111L224.969 -33.4072V-33.3744ZM320.106 -34.7194C297.125 -33.9511 275.206 -24.8573 258.431 -9.13111L320.106 52.4777V-34.6538V-34.7194ZM253.838 -4.53833C238.136 12.2464 229.066 34.1638 228.316 57.1361H315.447L253.838 -4.50553V-4.53833ZM228.316 63.6972C229.065 86.6537 238.123 108.558 253.806 125.339L315.447 63.6972H228.316ZM258.431 129.964C275.206 145.691 297.125 154.784 320.106 155.553V68.29L258.431 129.932V129.964ZM196.101 125.372C211.803 108.587 220.873 86.6695 221.623 63.6972H134.459L196.133 125.372H196.101ZM221.623 57.1361C220.873 34.1638 211.803 12.2464 196.101 -4.53833L134.459 57.1361H221.623Z" fill="#932902" fill-opacity="0.05"/>
</g>
<g clip-path="url(#clip2_293_1799)">
<path d="M421.803 154.175L446.013 129.932C434.416 117.582 426.093 102.526 421.803 86.1362C417.518 102.538 409.195 117.605 397.592 129.964L421.77 154.175H421.803ZM426.396 158.801L426.428 158.833H417.112L392.934 134.623C380.575 146.225 365.507 154.548 349.106 158.833H326.667V155.487C349.627 154.729 371.532 145.659 388.308 129.964L326.667 68.3228V52.4449L388.275 -9.16392C371.503 -24.8395 349.612 -33.8967 326.667 -34.6538V-38H349.106C365.495 -33.7101 380.551 -25.3871 392.901 -13.7895L417.112 -38H426.428L450.672 -13.7895C463.031 -25.3919 478.098 -33.7151 494.5 -38H523.5V52.4777V52.4449V158.833H494.5C478.08 154.535 463 146.188 450.639 134.557L426.396 158.833V158.801ZM421.803 -33.3744L397.527 -9.16392C409.158 3.19753 417.504 18.2775 421.803 34.6971C426.088 18.2957 434.411 3.22814 446.013 -9.13111L421.803 -33.4072V-33.3744ZM516.939 -34.7194C493.958 -33.9511 472.039 -24.8573 455.264 -9.13111L516.939 52.4777V-34.6538V-34.7194ZM450.672 -4.53833C434.969 12.2464 425.899 34.1638 425.149 57.1361H512.28L450.672 -4.50553V-4.53833ZM425.149 63.6972C425.898 86.6537 434.956 108.558 450.639 125.339L512.28 63.6972H425.149ZM455.264 129.964C472.039 145.691 493.958 154.784 516.939 155.553V68.29L455.264 129.932V129.964ZM392.934 125.372C408.636 108.587 417.706 86.6695 418.457 63.6972H331.292L392.967 125.372H392.934ZM418.457 57.1361C417.706 34.1638 408.636 12.2464 392.934 -4.53833L331.292 57.1361H418.457Z" fill="#932902" fill-opacity="0.05"/>
</g>
<g clip-path="url(#clip3_293_1799)">
<path d="M618.636 154.175L642.847 129.932C631.249 117.582 622.926 102.526 618.636 86.1362C614.351 102.538 606.028 117.605 594.426 129.964L618.603 154.175H618.636ZM623.229 158.801L623.262 158.833H613.945L589.767 134.623C577.408 146.225 562.34 154.548 545.939 158.833H523.5V155.487C546.461 154.729 568.365 145.659 585.142 129.964L523.5 68.3228V52.4449L585.109 -9.16392C568.336 -24.8395 546.445 -33.8967 523.5 -34.6538V-38H545.939C562.329 -33.7101 577.384 -25.3871 589.734 -13.7895L613.945 -38H623.262L647.505 -13.7895C659.864 -25.3919 674.932 -33.7151 691.333 -38H720.333V52.4777V52.4449V158.833H691.333C674.914 154.535 659.834 146.188 647.472 134.557L623.229 158.833V158.801ZM618.636 -33.3744L594.36 -9.16392C605.991 3.19753 614.337 18.2775 618.636 34.6971C622.921 18.2957 631.244 3.22814 642.847 -9.13111L618.636 -33.4072V-33.3744ZM713.772 -34.7194C690.791 -33.9511 668.873 -24.8573 652.098 -9.13111L713.772 52.4777V-34.6538V-34.7194ZM647.505 -4.53833C631.803 12.2464 622.733 34.1638 621.982 57.1361H709.114L647.505 -4.50553V-4.53833ZM621.982 63.6972C622.732 86.6537 631.789 108.558 647.472 125.339L709.114 63.6972H621.982ZM652.098 129.964C668.873 145.691 690.791 154.784 713.772 155.553V68.29L652.098 129.932V129.964ZM589.767 125.372C605.469 108.587 614.54 86.6695 615.29 63.6972H528.126L589.8 125.372H589.767ZM615.29 57.1361C614.54 34.1638 605.469 12.2464 589.767 -4.53833L528.126 57.1361H615.29Z" fill="#932902" fill-opacity="0.05"/>
</g>
<g clip-path="url(#clip4_293_1799)">
<path d="M815.469 154.175L839.68 129.932C828.082 117.582 819.759 102.526 815.469 86.1362C811.185 102.538 802.861 117.605 791.259 129.964L815.437 154.175H815.469ZM820.062 158.801L820.095 158.833H810.778L786.601 134.623C774.241 146.225 759.174 154.548 742.772 158.833H720.333V155.487C743.294 154.729 765.199 145.659 781.975 129.964L720.333 68.3228V52.4449L781.942 -9.16392C765.169 -24.8395 743.278 -33.8967 720.333 -34.6538V-38H742.772C759.162 -33.7101 774.218 -25.3871 786.568 -13.7895L810.778 -38H820.095L844.338 -13.7895C856.698 -25.3919 871.765 -33.7151 888.167 -38H917.167V52.4777V52.4449V158.833H888.167C871.747 154.535 856.667 146.188 844.306 134.557L820.062 158.833V158.801ZM815.469 -33.3744L791.193 -9.16392C802.824 3.19753 811.171 18.2775 815.469 34.6971C819.754 18.2957 828.078 3.22814 839.68 -9.13111L815.469 -33.4072V-33.3744ZM910.606 -34.7194C887.625 -33.9511 865.706 -24.8573 848.931 -9.13111L910.606 52.4777V-34.6538V-34.7194ZM844.338 -4.53833C828.636 12.2464 819.566 34.1638 818.816 57.1361H905.947L844.338 -4.50553V-4.53833ZM818.816 63.6972C819.565 86.6537 828.623 108.558 844.306 125.339L905.947 63.6972H818.816ZM848.931 129.964C865.706 145.691 887.625 154.784 910.606 155.553V68.29L848.931 129.932V129.964ZM786.601 125.372C802.303 108.587 811.373 86.6695 812.123 63.6972H724.959L786.633 125.372H786.601ZM812.123 57.1361C811.373 34.1638 802.303 12.2464 786.601 -4.53833L724.959 57.1361H812.123Z" fill="#932902" fill-opacity="0.05"/>
</g>
<g clip-path="url(#clip5_293_1799)">
<path d="M1012.3 154.175L1036.51 129.932C1024.92 117.582 1016.59 102.526 1012.3 86.1362C1008.02 102.538 999.695 117.605 988.092 129.964L1012.27 154.175H1012.3ZM1016.9 158.801L1016.93 158.833H1007.61L983.434 134.623C971.075 146.225 956.007 154.548 939.606 158.833H917.167V155.487C940.127 154.729 962.032 145.659 978.808 129.964L917.167 68.3228V52.4449L978.775 -9.16392C962.003 -24.8395 940.112 -33.8967 917.167 -34.6538V-38H939.606C955.995 -33.7101 971.051 -25.3871 983.401 -13.7895L1007.61 -38H1016.93L1041.17 -13.7895C1053.53 -25.3919 1068.6 -33.7151 1085 -38H1114V52.4777V52.4449V158.833H1085C1068.58 154.535 1053.5 146.188 1041.14 134.557L1016.9 158.833V158.801ZM1012.3 -33.3744L988.027 -9.16392C999.658 3.19753 1008 18.2775 1012.3 34.6971C1016.59 18.2957 1024.91 3.22814 1036.51 -9.13111L1012.3 -33.4072V-33.3744ZM1107.44 -34.7194C1084.46 -33.9511 1062.54 -24.8573 1045.76 -9.13111L1107.44 52.4777V-34.6538V-34.7194ZM1041.17 -4.53833C1025.47 12.2464 1016.4 34.1638 1015.65 57.1361H1102.78L1041.17 -4.50553V-4.53833ZM1015.65 63.6972C1016.4 86.6537 1025.46 108.558 1041.14 125.339L1102.78 63.6972H1015.65ZM1045.76 129.964C1062.54 145.691 1084.46 154.784 1107.44 155.553V68.29L1045.76 129.932V129.964ZM983.434 125.372C999.136 108.587 1008.21 86.6695 1008.96 63.6972H921.792L983.467 125.372H983.434ZM1008.96 57.1361C1008.21 34.1638 999.136 12.2464 983.434 -4.53833L921.792 57.1361H1008.96Z" fill="#932902" fill-opacity="0.05"/>
</g>
<g clip-path="url(#clip6_293_1799)">
<path d="M1209.14 154.175L1233.35 129.932C1221.75 117.582 1213.43 102.526 1209.14 86.1362C1204.85 102.538 1196.53 117.605 1184.93 129.964L1209.1 154.175H1209.14ZM1213.73 158.801L1213.76 158.833H1204.44L1180.27 134.623C1167.91 146.225 1152.84 154.548 1136.44 158.833H1114V155.487C1136.96 154.729 1158.87 145.659 1175.64 129.964L1114 68.3228V52.4449L1175.61 -9.16392C1158.84 -24.8395 1136.95 -33.8967 1114 -34.6538V-38H1136.44C1152.83 -33.7101 1167.88 -25.3871 1180.23 -13.7895L1204.44 -38H1213.76L1238 -13.7895C1250.36 -25.3919 1265.43 -33.7151 1281.83 -38H1310.83V52.4777V52.4449V158.833H1281.83C1265.41 154.535 1250.33 146.188 1237.97 134.557L1213.73 158.833V158.801ZM1209.14 -33.3744L1184.86 -9.16392C1196.49 3.19753 1204.84 18.2775 1209.14 34.6971C1213.42 18.2957 1221.74 3.22814 1233.35 -9.13111L1209.14 -33.4072V-33.3744ZM1304.27 -34.7194C1281.29 -33.9511 1259.37 -24.8573 1242.6 -9.13111L1304.27 52.4777V-34.6538V-34.7194ZM1238 -4.53833C1222.3 12.2464 1213.23 34.1638 1212.48 57.1361H1299.61L1238 -4.50553V-4.53833ZM1212.48 63.6972C1213.23 86.6537 1222.29 108.558 1237.97 125.339L1299.61 63.6972H1212.48ZM1242.6 129.964C1259.37 145.691 1281.29 154.784 1304.27 155.553V68.29L1242.6 129.932V129.964ZM1180.27 125.372C1195.97 108.587 1205.04 86.6695 1205.79 63.6972H1118.63L1180.3 125.372H1180.27ZM1205.79 57.1361C1205.04 34.1638 1195.97 12.2464 1180.27 -4.53833L1118.63 57.1361H1205.79Z" fill="#932902" fill-opacity="0.05"/>
</g>
<g clip-path="url(#clip7_293_1799)">
<path d="M1405.97 154.175L1430.18 129.932C1418.58 117.582 1410.26 102.526 1405.97 86.1362C1401.68 102.538 1393.36 117.605 1381.76 129.964L1405.94 154.175H1405.97ZM1410.56 158.801L1410.59 158.833H1401.28L1377.1 134.623C1364.74 146.225 1349.67 154.548 1333.27 158.833H1310.83V155.487C1333.79 154.729 1355.7 145.659 1372.47 129.964L1310.83 68.3228V52.4449L1372.44 -9.16392C1355.67 -24.8395 1333.78 -33.8967 1310.83 -34.6538V-38H1333.27C1349.66 -33.7101 1364.72 -25.3871 1377.07 -13.7895L1401.28 -38H1410.59L1434.84 -13.7895C1447.2 -25.3919 1462.27 -33.7151 1478.67 -38H1507.67V52.4777V52.4449V158.833H1478.67C1462.25 154.535 1447.17 146.188 1434.81 134.557L1410.56 158.833V158.801ZM1405.97 -33.3744L1381.69 -9.16392C1393.32 3.19753 1401.67 18.2775 1405.97 34.6971C1410.25 18.2957 1418.58 3.22814 1430.18 -9.13111L1405.97 -33.4072V-33.3744ZM1501.11 -34.7194C1478.12 -33.9511 1456.21 -24.8573 1439.43 -9.13111L1501.11 52.4777V-34.6538V-34.7194ZM1434.84 -4.53833C1419.14 12.2464 1410.07 34.1638 1409.32 57.1361H1496.45L1434.84 -4.50553V-4.53833ZM1409.32 63.6972C1410.06 86.6537 1419.12 108.558 1434.81 125.339L1496.45 63.6972H1409.32ZM1439.43 129.964C1456.21 145.691 1478.12 154.784 1501.11 155.553V68.29L1439.43 129.932V129.964ZM1377.1 125.372C1392.8 108.587 1401.87 86.6695 1402.62 63.6972H1315.46L1377.13 125.372H1377.1ZM1402.62 57.1361C1401.87 34.1638 1392.8 12.2464 1377.1 -4.53833L1315.46 57.1361H1402.62Z" fill="#932902" fill-opacity="0.05"/>
</g>
<g clip-path="url(#clip8_293_1799)">
<path d="M28.136 351.009L52.3465 326.766C40.7489 314.416 32.426 299.36 28.136 282.97C23.8512 299.372 15.5279 314.439 3.92555 326.798L28.1032 351.009H28.136ZM32.7288 355.635L32.7616 355.667H23.4449L-0.732841 331.457C-13.0921 343.059 -28.1596 351.382 -44.5611 355.667H-67.0001V352.321C-44.0392 351.563 -22.1347 342.493 -5.35842 326.798L-67.0001 265.157V249.279L-5.39123 187.67C-22.164 171.994 -44.055 162.937 -67.0001 162.18V158.834H-44.5611C-28.1713 163.124 -13.1156 171.447 -0.76564 183.044L23.4449 158.834H32.7616L57.0049 183.044C69.3642 171.442 84.4317 163.119 100.833 158.834H129.833V249.312V249.279V355.667H100.833C84.4135 351.369 69.3336 343.022 56.9721 331.391L32.7288 355.667V355.635ZM28.136 163.46L3.85994 187.67C15.4908 200.032 23.8373 215.111 28.136 231.531C32.4209 215.13 40.7442 200.062 52.3465 187.703L28.136 163.427V163.46ZM123.272 162.115C100.291 162.883 78.3727 171.977 61.5977 187.703L123.272 249.312V162.18V162.115ZM57.0049 192.296C41.3027 209.08 32.2326 230.998 31.4822 253.97H118.614L57.0049 192.328V192.296ZM31.4822 260.531C32.2315 283.488 41.2892 305.392 56.9721 322.173L118.614 260.531H31.4822ZM61.5977 326.798C78.3727 342.525 100.291 351.618 123.272 352.387V265.124L61.5977 326.766V326.798ZM-0.732841 322.206C14.9694 305.421 24.0395 283.503 24.7899 260.531H-62.3745L-0.700035 322.206H-0.732841ZM24.7899 253.97C24.0395 230.998 14.9694 209.08 -0.732841 192.296L-62.3745 253.97H24.7899Z" fill="#932902" fill-opacity="0.05"/>
</g>
<g clip-path="url(#clip9_293_1799)">
<path d="M224.969 351.009L249.18 326.766C237.582 314.416 229.259 299.36 224.969 282.97C220.685 299.372 212.361 314.439 200.759 326.798L224.937 351.009H224.969ZM229.562 355.635L229.595 355.667H220.278L196.101 331.457C183.741 343.059 168.674 351.382 152.272 355.667H129.833V352.321C152.794 351.563 174.699 342.493 191.475 326.798L129.833 265.157V249.279L191.442 187.67C174.669 171.994 152.778 162.937 129.833 162.18V158.834H152.272C168.662 163.124 183.718 171.447 196.068 183.044L220.278 158.834H229.595L253.838 183.044C266.198 171.442 281.265 163.119 297.667 158.834H326.667V249.312V249.279V355.667H297.667C281.247 351.369 266.167 343.022 253.806 331.391L229.562 355.667V355.635ZM224.969 163.46L200.693 187.67C212.324 200.032 220.671 215.111 224.969 231.531C229.254 215.13 237.578 200.062 249.18 187.703L224.969 163.427V163.46ZM320.106 162.115C297.125 162.883 275.206 171.977 258.431 187.703L320.106 249.312V162.18V162.115ZM253.838 192.296C238.136 209.08 229.066 230.998 228.316 253.97H315.447L253.838 192.328V192.296ZM228.316 260.531C229.065 283.488 238.123 305.392 253.806 322.173L315.447 260.531H228.316ZM258.431 326.798C275.206 342.525 297.125 351.618 320.106 352.387V265.124L258.431 326.766V326.798ZM196.101 322.206C211.803 305.421 220.873 283.503 221.623 260.531H134.459L196.133 322.206H196.101ZM221.623 253.97C220.873 230.998 211.803 209.08 196.101 192.296L134.459 253.97H221.623Z" fill="#932902" fill-opacity="0.05"/>
</g>
<g clip-path="url(#clip10_293_1799)">
<path d="M421.803 351.009L446.013 326.766C434.416 314.416 426.093 299.36 421.803 282.97C417.518 299.372 409.195 314.439 397.592 326.798L421.77 351.009H421.803ZM426.396 355.635L426.428 355.667H417.112L392.934 331.457C380.575 343.059 365.507 351.382 349.106 355.667H326.667V352.321C349.627 351.563 371.532 342.493 388.308 326.798L326.667 265.157V249.279L388.275 187.67C371.503 171.994 349.612 162.937 326.667 162.18V158.834H349.106C365.495 163.124 380.551 171.447 392.901 183.044L417.112 158.834H426.428L450.672 183.044C463.031 171.442 478.098 163.119 494.5 158.834H523.5V249.312V249.279V355.667H494.5C478.08 351.369 463 343.022 450.639 331.391L426.396 355.667V355.635ZM421.803 163.46L397.527 187.67C409.158 200.032 417.504 215.111 421.803 231.531C426.088 215.13 434.411 200.062 446.013 187.703L421.803 163.427V163.46ZM516.939 162.115C493.958 162.883 472.039 171.977 455.264 187.703L516.939 249.312V162.18V162.115ZM450.672 192.296C434.969 209.08 425.899 230.998 425.149 253.97H512.28L450.672 192.328V192.296ZM425.149 260.531C425.898 283.488 434.956 305.392 450.639 322.173L512.28 260.531H425.149ZM455.264 326.798C472.039 342.525 493.958 351.618 516.939 352.387V265.124L455.264 326.766V326.798ZM392.934 322.206C408.636 305.421 417.706 283.503 418.457 260.531H331.292L392.967 322.206H392.934ZM418.457 253.97C417.706 230.998 408.636 209.08 392.934 192.296L331.292 253.97H418.457Z" fill="#932902" fill-opacity="0.05"/>
</g>
<g clip-path="url(#clip11_293_1799)">
<path d="M618.636 351.009L642.847 326.766C631.249 314.416 622.926 299.36 618.636 282.97C614.351 299.372 606.028 314.439 594.426 326.798L618.603 351.009H618.636ZM623.229 355.635L623.262 355.667H613.945L589.767 331.457C577.408 343.059 562.34 351.382 545.939 355.667H523.5V352.321C546.461 351.563 568.365 342.493 585.142 326.798L523.5 265.157V249.279L585.109 187.67C568.336 171.994 546.445 162.937 523.5 162.18V158.834H545.939C562.329 163.124 577.384 171.447 589.734 183.044L613.945 158.834H623.262L647.505 183.044C659.864 171.442 674.932 163.119 691.333 158.834H720.333V249.312V249.279V355.667H691.333C674.914 351.369 659.834 343.022 647.472 331.391L623.229 355.667V355.635ZM618.636 163.46L594.36 187.67C605.991 200.032 614.337 215.111 618.636 231.531C622.921 215.13 631.244 200.062 642.847 187.703L618.636 163.427V163.46ZM713.772 162.115C690.791 162.883 668.873 171.977 652.098 187.703L713.772 249.312V162.18V162.115ZM647.505 192.296C631.803 209.08 622.733 230.998 621.982 253.97H709.114L647.505 192.328V192.296ZM621.982 260.531C622.732 283.488 631.789 305.392 647.472 322.173L709.114 260.531H621.982ZM652.098 326.798C668.873 342.525 690.791 351.618 713.772 352.387V265.124L652.098 326.766V326.798ZM589.767 322.206C605.469 305.421 614.54 283.503 615.29 260.531H528.126L589.8 322.206H589.767ZM615.29 253.97C614.54 230.998 605.469 209.08 589.767 192.296L528.126 253.97H615.29Z" fill="#932902" fill-opacity="0.05"/>
</g>
<g clip-path="url(#clip12_293_1799)">
<path d="M815.469 351.009L839.68 326.766C828.082 314.416 819.759 299.36 815.469 282.97C811.185 299.372 802.861 314.439 791.259 326.798L815.437 351.009H815.469ZM820.062 355.635L820.095 355.667H810.778L786.601 331.457C774.241 343.059 759.174 351.382 742.772 355.667H720.333V352.321C743.294 351.563 765.199 342.493 781.975 326.798L720.333 265.157V249.279L781.942 187.67C765.169 171.994 743.278 162.937 720.333 162.18V158.834H742.772C759.162 163.124 774.218 171.447 786.568 183.044L810.778 158.834H820.095L844.338 183.044C856.698 171.442 871.765 163.119 888.167 158.834H917.167V249.312V249.279V355.667H888.167C871.747 351.369 856.667 343.022 844.306 331.391L820.062 355.667V355.635ZM815.469 163.46L791.193 187.67C802.824 200.032 811.171 215.111 815.469 231.531C819.754 215.13 828.078 200.062 839.68 187.703L815.469 163.427V163.46ZM910.606 162.115C887.625 162.883 865.706 171.977 848.931 187.703L910.606 249.312V162.18V162.115ZM844.338 192.296C828.636 209.08 819.566 230.998 818.816 253.97H905.947L844.338 192.328V192.296ZM818.816 260.531C819.565 283.488 828.623 305.392 844.306 322.173L905.947 260.531H818.816ZM848.931 326.798C865.706 342.525 887.625 351.618 910.606 352.387V265.124L848.931 326.766V326.798ZM786.601 322.206C802.303 305.421 811.373 283.503 812.123 260.531H724.959L786.633 322.206H786.601ZM812.123 253.97C811.373 230.998 802.303 209.08 786.601 192.296L724.959 253.97H812.123Z" fill="#932902" fill-opacity="0.05"/>
</g>
<g clip-path="url(#clip13_293_1799)">
<path d="M1012.3 351.009L1036.51 326.766C1024.92 314.416 1016.59 299.36 1012.3 282.97C1008.02 299.372 999.695 314.439 988.092 326.798L1012.27 351.009H1012.3ZM1016.9 355.635L1016.93 355.667H1007.61L983.434 331.457C971.075 343.059 956.007 351.382 939.606 355.667H917.167V352.321C940.127 351.563 962.032 342.493 978.808 326.798L917.167 265.157V249.279L978.775 187.67C962.003 171.994 940.112 162.937 917.167 162.18V158.834H939.606C955.995 163.124 971.051 171.447 983.401 183.044L1007.61 158.834H1016.93L1041.17 183.044C1053.53 171.442 1068.6 163.119 1085 158.834H1114V249.312V249.279V355.667H1085C1068.58 351.369 1053.5 343.022 1041.14 331.391L1016.9 355.667V355.635ZM1012.3 163.46L988.027 187.67C999.658 200.032 1008 215.111 1012.3 231.531C1016.59 215.13 1024.91 200.062 1036.51 187.703L1012.3 163.427V163.46ZM1107.44 162.115C1084.46 162.883 1062.54 171.977 1045.76 187.703L1107.44 249.312V162.18V162.115ZM1041.17 192.296C1025.47 209.08 1016.4 230.998 1015.65 253.97H1102.78L1041.17 192.328V192.296ZM1015.65 260.531C1016.4 283.488 1025.46 305.392 1041.14 322.173L1102.78 260.531H1015.65ZM1045.76 326.798C1062.54 342.525 1084.46 351.618 1107.44 352.387V265.124L1045.76 326.766V326.798ZM983.434 322.206C999.136 305.421 1008.21 283.503 1008.96 260.531H921.792L983.467 322.206H983.434ZM1008.96 253.97C1008.21 230.998 999.136 209.08 983.434 192.296L921.792 253.97H1008.96Z" fill="#932902" fill-opacity="0.05"/>
</g>
<g clip-path="url(#clip14_293_1799)">
<path d="M1209.14 351.009L1233.35 326.766C1221.75 314.416 1213.43 299.36 1209.14 282.97C1204.85 299.372 1196.53 314.439 1184.93 326.798L1209.1 351.009H1209.14ZM1213.73 355.635L1213.76 355.667H1204.44L1180.27 331.457C1167.91 343.059 1152.84 351.382 1136.44 355.667H1114V352.321C1136.96 351.563 1158.87 342.493 1175.64 326.798L1114 265.157V249.279L1175.61 187.67C1158.84 171.994 1136.95 162.937 1114 162.18V158.834H1136.44C1152.83 163.124 1167.88 171.447 1180.23 183.044L1204.44 158.834H1213.76L1238 183.044C1250.36 171.442 1265.43 163.119 1281.83 158.834H1310.83V249.312V249.279V355.667H1281.83C1265.41 351.369 1250.33 343.022 1237.97 331.391L1213.73 355.667V355.635ZM1209.14 163.46L1184.86 187.67C1196.49 200.032 1204.84 215.111 1209.14 231.531C1213.42 215.13 1221.74 200.062 1233.35 187.703L1209.14 163.427V163.46ZM1304.27 162.115C1281.29 162.883 1259.37 171.977 1242.6 187.703L1304.27 249.312V162.18V162.115ZM1238 192.296C1222.3 209.08 1213.23 230.998 1212.48 253.97H1299.61L1238 192.328V192.296ZM1212.48 260.531C1213.23 283.488 1222.29 305.392 1237.97 322.173L1299.61 260.531H1212.48ZM1242.6 326.798C1259.37 342.525 1281.29 351.618 1304.27 352.387V265.124L1242.6 326.766V326.798ZM1180.27 322.206C1195.97 305.421 1205.04 283.503 1205.79 260.531H1118.63L1180.3 322.206H1180.27ZM1205.79 253.97C1205.04 230.998 1195.97 209.08 1180.27 192.296L1118.63 253.97H1205.79Z" fill="#932902" fill-opacity="0.05"/>
</g>
<g clip-path="url(#clip15_293_1799)">
<path d="M1405.97 351.009L1430.18 326.766C1418.58 314.416 1410.26 299.36 1405.97 282.97C1401.68 299.372 1393.36 314.439 1381.76 326.798L1405.94 351.009H1405.97ZM1410.56 355.635L1410.6 355.667H1401.28L1377.1 331.457C1364.74 343.059 1349.67 351.382 1333.27 355.667H1310.83V352.321C1333.79 351.563 1355.7 342.493 1372.48 326.798L1310.83 265.157V249.279L1372.44 187.67C1355.67 171.994 1333.78 162.937 1310.83 162.18V158.834H1333.27C1349.66 163.124 1364.72 171.447 1377.07 183.044L1401.28 158.834H1410.6L1434.84 183.044C1447.2 171.442 1462.27 163.119 1478.67 158.834H1507.67V249.312V249.279V355.667H1478.67C1462.25 351.369 1447.17 343.022 1434.81 331.391L1410.56 355.667V355.635ZM1405.97 163.46L1381.69 187.67C1393.32 200.032 1401.67 215.111 1405.97 231.531C1410.25 215.13 1418.58 200.062 1430.18 187.703L1405.97 163.427V163.46ZM1501.11 162.115C1478.12 162.883 1456.21 171.977 1439.43 187.703L1501.11 249.312V162.18V162.115ZM1434.84 192.296C1419.14 209.08 1410.07 230.998 1409.32 253.97H1496.45L1434.84 192.328V192.296ZM1409.32 260.531C1410.07 283.488 1419.12 305.392 1434.81 322.173L1496.45 260.531H1409.32ZM1439.43 326.798C1456.21 342.525 1478.12 351.618 1501.11 352.387V265.124L1439.43 326.766V326.798ZM1377.1 322.206C1392.8 305.421 1401.87 283.503 1402.62 260.531H1315.46L1377.13 322.206H1377.1ZM1402.62 253.97C1401.87 230.998 1392.8 209.08 1377.1 192.296L1315.46 253.97H1402.62Z" fill="#932902" fill-opacity="0.05"/>
</g>
<g clip-path="url(#clip16_293_1799)">
<path d="M28.136 547.841L52.3465 523.598C40.7489 511.248 32.426 496.192 28.136 479.802C23.8512 496.204 15.5279 511.271 3.92555 523.63L28.1032 547.841H28.136ZM32.7288 552.467L32.7616 552.499H23.4449L-0.732841 528.289C-13.0921 539.891 -28.1596 548.214 -44.5611 552.499H-67.0001V549.153C-44.0392 548.395 -22.1347 539.325 -5.35842 523.63L-67.0001 461.989V446.111L-5.39123 384.502C-22.164 368.826 -44.055 359.769 -67.0001 359.012V355.666H-44.5611C-28.1713 359.956 -13.1156 368.279 -0.76564 379.877L23.4449 355.666H32.7616L57.0049 379.877C69.3642 368.274 84.4317 359.951 100.833 355.666H129.833V446.144V446.111V552.499H100.833C84.4135 548.201 69.3336 539.854 56.9721 528.223L32.7288 552.499V552.467ZM28.136 360.292L3.85994 384.502C15.4908 396.864 23.8373 411.944 28.136 428.363C32.4209 411.962 40.7442 396.894 52.3465 384.535L28.136 360.259V360.292ZM123.272 358.947C100.291 359.715 78.3727 368.809 61.5977 384.535L123.272 446.144V359.012V358.947ZM57.0049 389.128C41.3027 405.912 32.2326 427.83 31.4822 450.802H118.614L57.0049 389.16V389.128ZM31.4822 457.363C32.2315 480.32 41.2892 502.224 56.9721 519.005L118.614 457.363H31.4822ZM61.5977 523.63C78.3727 539.357 100.291 548.45 123.272 549.219V461.956L61.5977 523.598V523.63ZM-0.732841 519.038C14.9694 502.253 24.0395 480.335 24.7899 457.363H-62.3745L-0.700035 519.038H-0.732841ZM24.7899 450.802C24.0395 427.83 14.9694 405.912 -0.732841 389.128L-62.3745 450.802H24.7899Z" fill="#932902" fill-opacity="0.05"/>
</g>
<g clip-path="url(#clip17_293_1799)">
<path d="M224.969 547.841L249.18 523.598C237.582 511.248 229.259 496.192 224.969 479.802C220.685 496.204 212.361 511.271 200.759 523.63L224.937 547.841H224.969ZM229.562 552.467L229.595 552.499H220.278L196.101 528.289C183.741 539.891 168.674 548.214 152.272 552.499H129.833V549.153C152.794 548.395 174.699 539.325 191.475 523.63L129.833 461.989V446.111L191.442 384.502C174.669 368.826 152.778 359.769 129.833 359.012V355.666H152.272C168.662 359.956 183.718 368.279 196.068 379.877L220.278 355.666H229.595L253.838 379.877C266.198 368.274 281.265 359.951 297.667 355.666H326.667V446.144V446.111V552.499H297.667C281.247 548.201 266.167 539.854 253.806 528.223L229.562 552.499V552.467ZM224.969 360.292L200.693 384.502C212.324 396.864 220.671 411.944 224.969 428.363C229.254 411.962 237.578 396.894 249.18 384.535L224.969 360.259V360.292ZM320.106 358.947C297.125 359.715 275.206 368.809 258.431 384.535L320.106 446.144V359.012V358.947ZM253.838 389.128C238.136 405.912 229.066 427.83 228.316 450.802H315.447L253.838 389.16V389.128ZM228.316 457.363C229.065 480.32 238.123 502.224 253.806 519.005L315.447 457.363H228.316ZM258.431 523.63C275.206 539.357 297.125 548.45 320.106 549.219V461.956L258.431 523.598V523.63ZM196.101 519.038C211.803 502.253 220.873 480.335 221.623 457.363H134.459L196.133 519.038H196.101ZM221.623 450.802C220.873 427.83 211.803 405.912 196.101 389.128L134.459 450.802H221.623Z" fill="#932902" fill-opacity="0.05"/>
</g>
<g clip-path="url(#clip18_293_1799)">
<path d="M421.803 547.841L446.013 523.598C434.416 511.248 426.093 496.192 421.803 479.802C417.518 496.204 409.195 511.271 397.592 523.63L421.77 547.841H421.803ZM426.396 552.467L426.428 552.499H417.112L392.934 528.289C380.575 539.891 365.507 548.214 349.106 552.499H326.667V549.153C349.627 548.395 371.532 539.325 388.308 523.63L326.667 461.989V446.111L388.275 384.502C371.503 368.826 349.612 359.769 326.667 359.012V355.666H349.106C365.495 359.956 380.551 368.279 392.901 379.877L417.112 355.666H426.428L450.672 379.877C463.031 368.274 478.098 359.951 494.5 355.666H523.5V446.144V446.111V552.499H494.5C478.08 548.201 463 539.854 450.639 528.223L426.396 552.499V552.467ZM421.803 360.292L397.527 384.502C409.158 396.864 417.504 411.944 421.803 428.363C426.088 411.962 434.411 396.894 446.013 384.535L421.803 360.259V360.292ZM516.939 358.947C493.958 359.715 472.039 368.809 455.264 384.535L516.939 446.144V359.012V358.947ZM450.672 389.128C434.969 405.912 425.899 427.83 425.149 450.802H512.28L450.672 389.16V389.128ZM425.149 457.363C425.898 480.32 434.956 502.224 450.639 519.005L512.28 457.363H425.149ZM455.264 523.63C472.039 539.357 493.958 548.45 516.939 549.219V461.956L455.264 523.598V523.63ZM392.934 519.038C408.636 502.253 417.706 480.335 418.457 457.363H331.292L392.967 519.038H392.934ZM418.457 450.802C417.706 427.83 408.636 405.912 392.934 389.128L331.292 450.802H418.457Z" fill="#932902" fill-opacity="0.05"/>
</g>
<g clip-path="url(#clip19_293_1799)">
<path d="M618.636 547.841L642.847 523.598C631.249 511.248 622.926 496.192 618.636 479.802C614.351 496.204 606.028 511.271 594.426 523.63L618.603 547.841H618.636ZM623.229 552.467L623.262 552.499H613.945L589.767 528.289C577.408 539.891 562.34 548.214 545.939 552.499H523.5V549.153C546.461 548.395 568.365 539.325 585.142 523.63L523.5 461.989V446.111L585.109 384.502C568.336 368.826 546.445 359.769 523.5 359.012V355.666H545.939C562.329 359.956 577.384 368.279 589.734 379.877L613.945 355.666H623.262L647.505 379.877C659.864 368.274 674.932 359.951 691.333 355.666H720.333V446.144V446.111V552.499H691.333C674.914 548.201 659.834 539.854 647.472 528.223L623.229 552.499V552.467ZM618.636 360.292L594.36 384.502C605.991 396.864 614.337 411.944 618.636 428.363C622.921 411.962 631.244 396.894 642.847 384.535L618.636 360.259V360.292ZM713.772 358.947C690.791 359.715 668.873 368.809 652.098 384.535L713.772 446.144V359.012V358.947ZM647.505 389.128C631.803 405.912 622.733 427.83 621.982 450.802H709.114L647.505 389.16V389.128ZM621.982 457.363C622.732 480.32 631.789 502.224 647.472 519.005L709.114 457.363H621.982ZM652.098 523.63C668.873 539.357 690.791 548.45 713.772 549.219V461.956L652.098 523.598V523.63ZM589.767 519.038C605.469 502.253 614.54 480.335 615.29 457.363H528.126L589.8 519.038H589.767ZM615.29 450.802C614.54 427.83 605.469 405.912 589.767 389.128L528.126 450.802H615.29Z" fill="#932902" fill-opacity="0.05"/>
</g>
<g clip-path="url(#clip20_293_1799)">
<path d="M815.469 547.841L839.68 523.598C828.082 511.248 819.759 496.192 815.469 479.802C811.185 496.204 802.861 511.271 791.259 523.63L815.437 547.841H815.469ZM820.062 552.467L820.095 552.499H810.778L786.601 528.289C774.241 539.891 759.174 548.214 742.772 552.499H720.333V549.153C743.294 548.395 765.199 539.325 781.975 523.63L720.333 461.989V446.111L781.942 384.502C765.169 368.826 743.278 359.769 720.333 359.012V355.666H742.772C759.162 359.956 774.218 368.279 786.568 379.877L810.778 355.666H820.095L844.338 379.877C856.698 368.274 871.765 359.951 888.167 355.666H917.167V446.144V446.111V552.499H888.167C871.747 548.201 856.667 539.854 844.306 528.223L820.062 552.499V552.467ZM815.469 360.292L791.193 384.502C802.824 396.864 811.171 411.944 815.469 428.363C819.754 411.962 828.078 396.894 839.68 384.535L815.469 360.259V360.292ZM910.606 358.947C887.625 359.715 865.706 368.809 848.931 384.535L910.606 446.144V359.012V358.947ZM844.338 389.128C828.636 405.912 819.566 427.83 818.816 450.802H905.947L844.338 389.16V389.128ZM818.816 457.363C819.565 480.32 828.623 502.224 844.306 519.005L905.947 457.363H818.816ZM848.931 523.63C865.706 539.357 887.625 548.45 910.606 549.219V461.956L848.931 523.598V523.63ZM786.601 519.038C802.303 502.253 811.373 480.335 812.123 457.363H724.959L786.633 519.038H786.601ZM812.123 450.802C811.373 427.83 802.303 405.912 786.601 389.128L724.959 450.802H812.123Z" fill="#932902" fill-opacity="0.05"/>
</g>
<g clip-path="url(#clip21_293_1799)">
<path d="M1012.3 547.841L1036.51 523.598C1024.92 511.248 1016.59 496.192 1012.3 479.802C1008.02 496.204 999.695 511.271 988.092 523.63L1012.27 547.841H1012.3ZM1016.9 552.467L1016.93 552.499H1007.61L983.434 528.289C971.075 539.891 956.007 548.214 939.606 552.499H917.167V549.153C940.127 548.395 962.032 539.325 978.808 523.63L917.167 461.989V446.111L978.775 384.502C962.003 368.826 940.112 359.769 917.167 359.012V355.666H939.606C955.995 359.956 971.051 368.279 983.401 379.877L1007.61 355.666H1016.93L1041.17 379.877C1053.53 368.274 1068.6 359.951 1085 355.666H1114V446.144V446.111V552.499H1085C1068.58 548.201 1053.5 539.854 1041.14 528.223L1016.9 552.499V552.467ZM1012.3 360.292L988.027 384.502C999.658 396.864 1008 411.944 1012.3 428.363C1016.59 411.962 1024.91 396.894 1036.51 384.535L1012.3 360.259V360.292ZM1107.44 358.947C1084.46 359.715 1062.54 368.809 1045.76 384.535L1107.44 446.144V359.012V358.947ZM1041.17 389.128C1025.47 405.912 1016.4 427.83 1015.65 450.802H1102.78L1041.17 389.16V389.128ZM1015.65 457.363C1016.4 480.32 1025.46 502.224 1041.14 519.005L1102.78 457.363H1015.65ZM1045.76 523.63C1062.54 539.357 1084.46 548.45 1107.44 549.219V461.956L1045.76 523.598V523.63ZM983.434 519.038C999.136 502.253 1008.21 480.335 1008.96 457.363H921.792L983.467 519.038H983.434ZM1008.96 450.802C1008.21 427.83 999.136 405.912 983.434 389.128L921.792 450.802H1008.96Z" fill="#932902" fill-opacity="0.05"/>
</g>
<g clip-path="url(#clip22_293_1799)">
<path d="M1209.14 547.841L1233.35 523.598C1221.75 511.248 1213.43 496.192 1209.14 479.802C1204.85 496.204 1196.53 511.271 1184.93 523.63L1209.1 547.841H1209.14ZM1213.73 552.467L1213.76 552.499H1204.44L1180.27 528.289C1167.91 539.891 1152.84 548.214 1136.44 552.499H1114V549.153C1136.96 548.395 1158.87 539.325 1175.64 523.63L1114 461.989V446.111L1175.61 384.502C1158.84 368.826 1136.95 359.769 1114 359.012V355.666H1136.44C1152.83 359.956 1167.88 368.279 1180.23 379.877L1204.44 355.666H1213.76L1238 379.877C1250.36 368.274 1265.43 359.951 1281.83 355.666H1310.83V446.144V446.111V552.499H1281.83C1265.41 548.201 1250.33 539.854 1237.97 528.223L1213.73 552.499V552.467ZM1209.14 360.292L1184.86 384.502C1196.49 396.864 1204.84 411.944 1209.14 428.363C1213.42 411.962 1221.74 396.894 1233.35 384.535L1209.14 360.259V360.292ZM1304.27 358.947C1281.29 359.715 1259.37 368.809 1242.6 384.535L1304.27 446.144V359.012V358.947ZM1238 389.128C1222.3 405.912 1213.23 427.83 1212.48 450.802H1299.61L1238 389.16V389.128ZM1212.48 457.363C1213.23 480.32 1222.29 502.224 1237.97 519.005L1299.61 457.363H1212.48ZM1242.6 523.63C1259.37 539.357 1281.29 548.45 1304.27 549.219V461.956L1242.6 523.598V523.63ZM1180.27 519.038C1195.97 502.253 1205.04 480.335 1205.79 457.363H1118.63L1180.3 519.038H1180.27ZM1205.79 450.802C1205.04 427.83 1195.97 405.912 1180.27 389.128L1118.63 450.802H1205.79Z" fill="#932902" fill-opacity="0.05"/>
</g>
<g clip-path="url(#clip23_293_1799)">
<path d="M1405.97 547.841L1430.18 523.598C1418.58 511.248 1410.26 496.192 1405.97 479.802C1401.68 496.204 1393.36 511.271 1381.76 523.63L1405.94 547.841H1405.97ZM1410.56 552.467L1410.6 552.499H1401.28L1377.1 528.289C1364.74 539.891 1349.67 548.214 1333.27 552.499H1310.83V549.153C1333.79 548.395 1355.7 539.325 1372.48 523.63L1310.83 461.989V446.111L1372.44 384.502C1355.67 368.826 1333.78 359.769 1310.83 359.012V355.666H1333.27C1349.66 359.956 1364.72 368.279 1377.07 379.877L1401.28 355.666H1410.6L1434.84 379.877C1447.2 368.274 1462.27 359.951 1478.67 355.666H1507.67V446.144V446.111V552.499H1478.67C1462.25 548.201 1447.17 539.854 1434.81 528.223L1410.56 552.499V552.467ZM1405.97 360.292L1381.69 384.502C1393.32 396.864 1401.67 411.944 1405.97 428.363C1410.25 411.962 1418.58 396.894 1430.18 384.535L1405.97 360.259V360.292ZM1501.11 358.947C1478.12 359.715 1456.21 368.809 1439.43 384.535L1501.11 446.144V359.012V358.947ZM1434.84 389.128C1419.14 405.912 1410.07 427.83 1409.32 450.802H1496.45L1434.84 389.16V389.128ZM1409.32 457.363C1410.07 480.32 1419.12 502.224 1434.81 519.005L1496.45 457.363H1409.32ZM1439.43 523.63C1456.21 539.357 1478.12 548.45 1501.11 549.219V461.956L1439.43 523.598V523.63ZM1377.1 519.038C1392.8 502.253 1401.87 480.335 1402.62 457.363H1315.46L1377.13 519.038H1377.1ZM1402.62 450.802C1401.87 427.83 1392.8 405.912 1377.1 389.128L1315.46 450.802H1402.62Z" fill="#932902" fill-opacity="0.05"/>
</g>
<g clip-path="url(#clip24_293_1799)">
<path d="M28.1361 744.675L52.3466 720.432C40.749 708.082 32.426 693.026 28.1361 676.636C23.8512 693.038 15.528 708.105 3.92561 720.464L28.1033 744.675H28.1361ZM32.7289 749.301L32.7617 749.333H23.4449L-0.73278 725.123C-13.092 736.725 -28.1596 745.048 -44.561 749.333H-67V745.987C-44.0392 745.229 -22.1347 736.159 -5.35836 720.464L-67 658.823V642.945L-5.39117 581.336C-22.1639 565.66 -44.0549 556.603 -67 555.846V552.5H-44.561C-28.1713 556.79 -13.1155 565.113 -0.765579 576.711L23.4449 552.5H32.7617L57.005 576.711C69.3642 565.108 84.4318 556.785 100.833 552.5H129.833V642.978V642.945V749.333H100.833C84.4136 745.035 69.3336 736.688 56.9722 725.057L32.7289 749.333V749.301ZM28.1361 557.126L3.86 581.336C15.4909 593.698 23.8373 608.778 28.1361 625.197C32.421 608.796 40.7442 593.728 52.3466 581.369L28.1361 557.093V557.126ZM123.272 555.781C100.291 556.549 78.3728 565.643 61.5978 581.369L123.272 642.978V555.846V555.781ZM57.005 585.962C41.3027 602.746 32.2327 624.664 31.4823 647.636H118.614L57.005 585.994V585.962ZM31.4823 654.197C32.2316 677.154 41.2892 699.058 56.9722 715.839L118.614 654.197H31.4823ZM61.5978 720.464C78.3728 736.191 100.291 745.284 123.272 746.053V658.79L61.5978 720.432V720.464ZM-0.73278 715.872C14.9695 699.087 24.0396 677.169 24.7899 654.197H-62.3744L-0.699974 715.872H-0.73278ZM24.7899 647.636C24.0396 624.664 14.9695 602.746 -0.73278 585.962L-62.3744 647.636H24.7899Z" fill="#932902" fill-opacity="0.05"/>
</g>
<g clip-path="url(#clip25_293_1799)">
<path d="M224.969 744.675L249.18 720.432C237.582 708.082 229.259 693.026 224.969 676.636C220.685 693.038 212.361 708.105 200.759 720.464L224.937 744.675H224.969ZM229.562 749.301L229.595 749.333H220.278L196.101 725.123C183.741 736.725 168.674 745.048 152.272 749.333H129.833V745.987C152.794 745.229 174.699 736.159 191.475 720.464L129.833 658.823V642.945L191.442 581.336C174.669 565.66 152.778 556.603 129.833 555.846V552.5H152.272C168.662 556.79 183.718 565.113 196.068 576.711L220.278 552.5H229.595L253.838 576.711C266.198 565.108 281.265 556.785 297.667 552.5H326.667V642.978V642.945V749.333H297.667C281.247 745.035 266.167 736.688 253.806 725.057L229.562 749.333V749.301ZM224.969 557.126L200.693 581.336C212.324 593.698 220.671 608.778 224.969 625.197C229.254 608.796 237.578 593.728 249.18 581.369L224.969 557.093V557.126ZM320.106 555.781C297.125 556.549 275.206 565.643 258.431 581.369L320.106 642.978V555.846V555.781ZM253.838 585.962C238.136 602.746 229.066 624.664 228.316 647.636H315.447L253.838 585.994V585.962ZM228.316 654.197C229.065 677.154 238.123 699.058 253.806 715.839L315.447 654.197H228.316ZM258.431 720.464C275.206 736.191 297.125 745.284 320.106 746.053V658.79L258.431 720.432V720.464ZM196.101 715.872C211.803 699.087 220.873 677.169 221.623 654.197H134.459L196.133 715.872H196.101ZM221.623 647.636C220.873 624.664 211.803 602.746 196.101 585.962L134.459 647.636H221.623Z" fill="#932902" fill-opacity="0.05"/>
</g>
<g clip-path="url(#clip26_293_1799)">
<path d="M421.803 744.675L446.013 720.432C434.416 708.082 426.093 693.026 421.803 676.636C417.518 693.038 409.195 708.105 397.592 720.464L421.77 744.675H421.803ZM426.396 749.301L426.428 749.333H417.112L392.934 725.123C380.575 736.725 365.507 745.048 349.106 749.333H326.667V745.987C349.627 745.229 371.532 736.159 388.308 720.464L326.667 658.823V642.945L388.275 581.336C371.503 565.66 349.612 556.603 326.667 555.846V552.5H349.106C365.495 556.79 380.551 565.113 392.901 576.711L417.112 552.5H426.428L450.672 576.711C463.031 565.108 478.098 556.785 494.5 552.5H523.5V642.978V642.945V749.333H494.5C478.08 745.035 463 736.688 450.639 725.057L426.396 749.333V749.301ZM421.803 557.126L397.527 581.336C409.158 593.698 417.504 608.778 421.803 625.197C426.088 608.796 434.411 593.728 446.013 581.369L421.803 557.093V557.126ZM516.939 555.781C493.958 556.549 472.039 565.643 455.264 581.369L516.939 642.978V555.846V555.781ZM450.672 585.962C434.969 602.746 425.899 624.664 425.149 647.636H512.28L450.672 585.994V585.962ZM425.149 654.197C425.898 677.154 434.956 699.058 450.639 715.839L512.28 654.197H425.149ZM455.264 720.464C472.039 736.191 493.958 745.284 516.939 746.053V658.79L455.264 720.432V720.464ZM392.934 715.872C408.636 699.087 417.706 677.169 418.457 654.197H331.292L392.967 715.872H392.934ZM418.457 647.636C417.706 624.664 408.636 602.746 392.934 585.962L331.292 647.636H418.457Z" fill="#932902" fill-opacity="0.05"/>
</g>
<g clip-path="url(#clip27_293_1799)">
<path d="M618.636 744.675L642.847 720.432C631.249 708.082 622.926 693.026 618.636 676.636C614.351 693.038 606.028 708.105 594.426 720.464L618.603 744.675H618.636ZM623.229 749.301L623.262 749.333H613.945L589.767 725.123C577.408 736.725 562.34 745.048 545.939 749.333H523.5V745.987C546.461 745.229 568.365 736.159 585.142 720.464L523.5 658.823V642.945L585.109 581.336C568.336 565.66 546.445 556.603 523.5 555.846V552.5H545.939C562.329 556.79 577.384 565.113 589.734 576.711L613.945 552.5H623.262L647.505 576.711C659.864 565.108 674.932 556.785 691.333 552.5H720.333V642.978V642.945V749.333H691.333C674.914 745.035 659.834 736.688 647.472 725.057L623.229 749.333V749.301ZM618.636 557.126L594.36 581.336C605.991 593.698 614.337 608.778 618.636 625.197C622.921 608.796 631.244 593.728 642.847 581.369L618.636 557.093V557.126ZM713.772 555.781C690.791 556.549 668.873 565.643 652.098 581.369L713.772 642.978V555.846V555.781ZM647.505 585.962C631.803 602.746 622.733 624.664 621.982 647.636H709.114L647.505 585.994V585.962ZM621.982 654.197C622.732 677.154 631.789 699.058 647.472 715.839L709.114 654.197H621.982ZM652.098 720.464C668.873 736.191 690.791 745.284 713.772 746.053V658.79L652.098 720.432V720.464ZM589.767 715.872C605.469 699.087 614.54 677.169 615.29 654.197H528.126L589.8 715.872H589.767ZM615.29 647.636C614.54 624.664 605.469 602.746 589.767 585.962L528.126 647.636H615.29Z" fill="#932902" fill-opacity="0.05"/>
</g>
<g clip-path="url(#clip28_293_1799)">
<path d="M815.469 744.675L839.68 720.432C828.082 708.082 819.759 693.026 815.469 676.636C811.185 693.038 802.861 708.105 791.259 720.464L815.437 744.675H815.469ZM820.062 749.301L820.095 749.333H810.778L786.601 725.123C774.241 736.725 759.174 745.048 742.772 749.333H720.333V745.987C743.294 745.229 765.199 736.159 781.975 720.464L720.333 658.823V642.945L781.942 581.336C765.169 565.66 743.278 556.603 720.333 555.846V552.5H742.772C759.162 556.79 774.218 565.113 786.568 576.711L810.778 552.5H820.095L844.338 576.711C856.698 565.108 871.765 556.785 888.167 552.5H917.167V642.978V642.945V749.333H888.167C871.747 745.035 856.667 736.688 844.306 725.057L820.062 749.333V749.301ZM815.469 557.126L791.193 581.336C802.824 593.698 811.171 608.778 815.469 625.197C819.754 608.796 828.078 593.728 839.68 581.369L815.469 557.093V557.126ZM910.606 555.781C887.625 556.549 865.706 565.643 848.931 581.369L910.606 642.978V555.846V555.781ZM844.338 585.962C828.636 602.746 819.566 624.664 818.816 647.636H905.947L844.338 585.994V585.962ZM818.816 654.197C819.565 677.154 828.623 699.058 844.306 715.839L905.947 654.197H818.816ZM848.931 720.464C865.706 736.191 887.625 745.284 910.606 746.053V658.79L848.931 720.432V720.464ZM786.601 715.872C802.303 699.087 811.373 677.169 812.123 654.197H724.959L786.633 715.872H786.601ZM812.123 647.636C811.373 624.664 802.303 602.746 786.601 585.962L724.959 647.636H812.123Z" fill="#932902" fill-opacity="0.05"/>
</g>
<g clip-path="url(#clip29_293_1799)">
<path d="M1012.3 744.675L1036.51 720.432C1024.92 708.082 1016.59 693.026 1012.3 676.636C1008.02 693.038 999.695 708.105 988.092 720.464L1012.27 744.675H1012.3ZM1016.9 749.301L1016.93 749.333H1007.61L983.434 725.123C971.075 736.725 956.007 745.048 939.606 749.333H917.167V745.987C940.127 745.229 962.032 736.159 978.808 720.464L917.167 658.823V642.945L978.775 581.336C962.003 565.66 940.112 556.603 917.167 555.846V552.5H939.606C955.995 556.79 971.051 565.113 983.401 576.711L1007.61 552.5H1016.93L1041.17 576.711C1053.53 565.108 1068.6 556.785 1085 552.5H1114V642.978V642.945V749.333H1085C1068.58 745.035 1053.5 736.688 1041.14 725.057L1016.9 749.333V749.301ZM1012.3 557.126L988.027 581.336C999.658 593.698 1008 608.778 1012.3 625.197C1016.59 608.796 1024.91 593.728 1036.51 581.369L1012.3 557.093V557.126ZM1107.44 555.781C1084.46 556.549 1062.54 565.643 1045.76 581.369L1107.44 642.978V555.846V555.781ZM1041.17 585.962C1025.47 602.746 1016.4 624.664 1015.65 647.636H1102.78L1041.17 585.994V585.962ZM1015.65 654.197C1016.4 677.154 1025.46 699.058 1041.14 715.839L1102.78 654.197H1015.65ZM1045.76 720.464C1062.54 736.191 1084.46 745.284 1107.44 746.053V658.79L1045.76 720.432V720.464ZM983.434 715.872C999.136 699.087 1008.21 677.169 1008.96 654.197H921.792L983.467 715.872H983.434ZM1008.96 647.636C1008.21 624.664 999.136 602.746 983.434 585.962L921.792 647.636H1008.96Z" fill="#932902" fill-opacity="0.05"/>
</g>
<g clip-path="url(#clip30_293_1799)">
<path d="M1209.14 744.675L1233.35 720.432C1221.75 708.082 1213.43 693.026 1209.14 676.636C1204.85 693.038 1196.53 708.105 1184.93 720.464L1209.1 744.675H1209.14ZM1213.73 749.301L1213.76 749.333H1204.44L1180.27 725.123C1167.91 736.725 1152.84 745.048 1136.44 749.333H1114V745.987C1136.96 745.229 1158.87 736.159 1175.64 720.464L1114 658.823V642.945L1175.61 581.336C1158.84 565.66 1136.95 556.603 1114 555.846V552.5H1136.44C1152.83 556.79 1167.88 565.113 1180.23 576.711L1204.44 552.5H1213.76L1238 576.711C1250.36 565.108 1265.43 556.785 1281.83 552.5H1310.83V642.978V642.945V749.333H1281.83C1265.41 745.035 1250.33 736.688 1237.97 725.057L1213.73 749.333V749.301ZM1209.14 557.126L1184.86 581.336C1196.49 593.698 1204.84 608.778 1209.14 625.197C1213.42 608.796 1221.74 593.728 1233.35 581.369L1209.14 557.093V557.126ZM1304.27 555.781C1281.29 556.549 1259.37 565.643 1242.6 581.369L1304.27 642.978V555.846V555.781ZM1238 585.962C1222.3 602.746 1213.23 624.664 1212.48 647.636H1299.61L1238 585.994V585.962ZM1212.48 654.197C1213.23 677.154 1222.29 699.058 1237.97 715.839L1299.61 654.197H1212.48ZM1242.6 720.464C1259.37 736.191 1281.29 745.284 1304.27 746.053V658.79L1242.6 720.432V720.464ZM1180.27 715.872C1195.97 699.087 1205.04 677.169 1205.79 654.197H1118.63L1180.3 715.872H1180.27ZM1205.79 647.636C1205.04 624.664 1195.97 602.746 1180.27 585.962L1118.63 647.636H1205.79Z" fill="#932902" fill-opacity="0.05"/>
</g>
<g clip-path="url(#clip31_293_1799)">
<path d="M1405.97 744.675L1430.18 720.432C1418.58 708.082 1410.26 693.026 1405.97 676.636C1401.68 693.038 1393.36 708.105 1381.76 720.464L1405.94 744.675H1405.97ZM1410.56 749.301L1410.59 749.333H1401.28L1377.1 725.123C1364.74 736.725 1349.67 745.048 1333.27 749.333H1310.83V745.987C1333.79 745.229 1355.7 736.159 1372.47 720.464L1310.83 658.823V642.945L1372.44 581.336C1355.67 565.66 1333.78 556.603 1310.83 555.846V552.5H1333.27C1349.66 556.79 1364.72 565.113 1377.07 576.711L1401.28 552.5H1410.59L1434.84 576.711C1447.2 565.108 1462.27 556.785 1478.67 552.5H1507.67V642.978V642.945V749.333H1478.67C1462.25 745.035 1447.17 736.688 1434.81 725.057L1410.56 749.333V749.301ZM1405.97 557.126L1381.69 581.336C1393.32 593.698 1401.67 608.778 1405.97 625.197C1410.25 608.796 1418.58 593.728 1430.18 581.369L1405.97 557.093V557.126ZM1501.11 555.781C1478.12 556.549 1456.21 565.643 1439.43 581.369L1501.11 642.978V555.846V555.781ZM1434.84 585.962C1419.14 602.746 1410.07 624.664 1409.32 647.636H1496.45L1434.84 585.994V585.962ZM1409.32 654.197C1410.06 677.154 1419.12 699.058 1434.81 715.839L1496.45 654.197H1409.32ZM1439.43 720.464C1456.21 736.191 1478.12 745.284 1501.11 746.053V658.79L1439.43 720.432V720.464ZM1377.1 715.872C1392.8 699.087 1401.87 677.169 1402.62 654.197H1315.46L1377.13 715.872H1377.1ZM1402.62 647.636C1401.87 624.664 1392.8 602.746 1377.1 585.962L1315.46 647.636H1402.62Z" fill="#932902" fill-opacity="0.05"/>
</g>
<g clip-path="url(#clip32_293_1799)">
<path d="M28.136 941.509L52.3465 917.266C40.7489 904.916 32.426 889.86 28.136 873.47C23.8512 889.872 15.5279 904.939 3.92555 917.298L28.1032 941.509H28.136ZM32.7288 946.135L32.7616 946.167H23.4449L-0.732841 921.957C-13.0921 933.559 -28.1596 941.882 -44.5611 946.167H-67.0001V942.821C-44.0392 942.063 -22.1347 932.993 -5.35842 917.298L-67.0001 855.657V839.779L-5.39123 778.17C-22.164 762.494 -44.055 753.437 -67.0001 752.68V749.334H-44.5611C-28.1713 753.624 -13.1156 761.947 -0.76564 773.544L23.4449 749.334H32.7616L57.0049 773.544C69.3642 761.942 84.4317 753.619 100.833 749.334H129.833V839.812V839.779V946.167H100.833C84.4135 941.869 69.3336 933.522 56.9721 921.891L32.7288 946.167V946.135ZM28.136 753.96L3.85994 778.17C15.4908 790.532 23.8373 805.611 28.136 822.031C32.4209 805.63 40.7442 790.562 52.3465 778.203L28.136 753.927V753.96ZM123.272 752.615C100.291 753.383 78.3727 762.477 61.5977 778.203L123.272 839.812V752.68V752.615ZM57.0049 782.796C41.3027 799.58 32.2326 821.498 31.4822 844.47H118.614L57.0049 782.828V782.796ZM31.4822 851.031C32.2315 873.988 41.2892 895.892 56.9721 912.673L118.614 851.031H31.4822ZM61.5977 917.298C78.3727 933.025 100.291 942.118 123.272 942.887V855.624L61.5977 917.266V917.298ZM-0.732841 912.706C14.9694 895.921 24.0395 874.003 24.7899 851.031H-62.3745L-0.700035 912.706H-0.732841ZM24.7899 844.47C24.0395 821.498 14.9694 799.58 -0.732841 782.796L-62.3745 844.47H24.7899Z" fill="#932902" fill-opacity="0.05"/>
</g>
<g clip-path="url(#clip33_293_1799)">
<path d="M224.969 941.509L249.18 917.266C237.582 904.916 229.259 889.86 224.969 873.47C220.685 889.872 212.361 904.939 200.759 917.298L224.937 941.509H224.969ZM229.562 946.135L229.595 946.167H220.278L196.101 921.957C183.741 933.559 168.674 941.882 152.272 946.167H129.833V942.821C152.794 942.063 174.699 932.993 191.475 917.298L129.833 855.657V839.779L191.442 778.17C174.669 762.494 152.778 753.437 129.833 752.68V749.334H152.272C168.662 753.624 183.718 761.947 196.068 773.544L220.278 749.334H229.595L253.838 773.544C266.198 761.942 281.265 753.619 297.667 749.334H326.667V839.812V839.779V946.167H297.667C281.247 941.869 266.167 933.522 253.806 921.891L229.562 946.167V946.135ZM224.969 753.96L200.693 778.17C212.324 790.532 220.671 805.611 224.969 822.031C229.254 805.63 237.578 790.562 249.18 778.203L224.969 753.927V753.96ZM320.106 752.615C297.125 753.383 275.206 762.477 258.431 778.203L320.106 839.812V752.68V752.615ZM253.838 782.796C238.136 799.58 229.066 821.498 228.316 844.47H315.447L253.838 782.828V782.796ZM228.316 851.031C229.065 873.988 238.123 895.892 253.806 912.673L315.447 851.031H228.316ZM258.431 917.298C275.206 933.025 297.125 942.118 320.106 942.887V855.624L258.431 917.266V917.298ZM196.101 912.706C211.803 895.921 220.873 874.003 221.623 851.031H134.459L196.133 912.706H196.101ZM221.623 844.47C220.873 821.498 211.803 799.58 196.101 782.796L134.459 844.47H221.623Z" fill="#932902" fill-opacity="0.05"/>
</g>
<g clip-path="url(#clip34_293_1799)">
<path d="M421.803 941.509L446.013 917.266C434.416 904.916 426.093 889.86 421.803 873.47C417.518 889.872 409.195 904.939 397.592 917.298L421.77 941.509H421.803ZM426.396 946.135L426.428 946.167H417.112L392.934 921.957C380.575 933.559 365.507 941.882 349.106 946.167H326.667V942.821C349.627 942.063 371.532 932.993 388.308 917.298L326.667 855.657V839.779L388.275 778.17C371.503 762.494 349.612 753.437 326.667 752.68V749.334H349.106C365.495 753.624 380.551 761.947 392.901 773.544L417.112 749.334H426.428L450.672 773.544C463.031 761.942 478.098 753.619 494.5 749.334H523.5V839.812V839.779V946.167H494.5C478.08 941.869 463 933.522 450.639 921.891L426.396 946.167V946.135ZM421.803 753.96L397.527 778.17C409.158 790.532 417.504 805.611 421.803 822.031C426.088 805.63 434.411 790.562 446.013 778.203L421.803 753.927V753.96ZM516.939 752.615C493.958 753.383 472.039 762.477 455.264 778.203L516.939 839.812V752.68V752.615ZM450.672 782.796C434.969 799.58 425.899 821.498 425.149 844.47H512.28L450.672 782.828V782.796ZM425.149 851.031C425.898 873.988 434.956 895.892 450.639 912.673L512.28 851.031H425.149ZM455.264 917.298C472.039 933.025 493.958 942.118 516.939 942.887V855.624L455.264 917.266V917.298ZM392.934 912.706C408.636 895.921 417.706 874.003 418.457 851.031H331.292L392.967 912.706H392.934ZM418.457 844.47C417.706 821.498 408.636 799.58 392.934 782.796L331.292 844.47H418.457Z" fill="#932902" fill-opacity="0.05"/>
</g>
<g clip-path="url(#clip35_293_1799)">
<path d="M618.636 941.509L642.847 917.266C631.249 904.916 622.926 889.86 618.636 873.47C614.351 889.872 606.028 904.939 594.426 917.298L618.603 941.509H618.636ZM623.229 946.135L623.262 946.167H613.945L589.767 921.957C577.408 933.559 562.34 941.882 545.939 946.167H523.5V942.821C546.461 942.063 568.365 932.993 585.142 917.298L523.5 855.657V839.779L585.109 778.17C568.336 762.494 546.445 753.437 523.5 752.68V749.334H545.939C562.329 753.624 577.384 761.947 589.734 773.544L613.945 749.334H623.262L647.505 773.544C659.864 761.942 674.932 753.619 691.333 749.334H720.333V839.812V839.779V946.167H691.333C674.914 941.869 659.834 933.522 647.472 921.891L623.229 946.167V946.135ZM618.636 753.96L594.36 778.17C605.991 790.532 614.337 805.611 618.636 822.031C622.921 805.63 631.244 790.562 642.847 778.203L618.636 753.927V753.96ZM713.772 752.615C690.791 753.383 668.873 762.477 652.098 778.203L713.772 839.812V752.68V752.615ZM647.505 782.796C631.803 799.58 622.733 821.498 621.982 844.47H709.114L647.505 782.828V782.796ZM621.982 851.031C622.732 873.988 631.789 895.892 647.472 912.673L709.114 851.031H621.982ZM652.098 917.298C668.873 933.025 690.791 942.118 713.772 942.887V855.624L652.098 917.266V917.298ZM589.767 912.706C605.469 895.921 614.54 874.003 615.29 851.031H528.126L589.8 912.706H589.767ZM615.29 844.47C614.54 821.498 605.469 799.58 589.767 782.796L528.126 844.47H615.29Z" fill="#932902" fill-opacity="0.05"/>
</g>
<g clip-path="url(#clip36_293_1799)">
<path d="M815.469 941.509L839.68 917.266C828.082 904.916 819.759 889.86 815.469 873.47C811.185 889.872 802.861 904.939 791.259 917.298L815.437 941.509H815.469ZM820.062 946.135L820.095 946.167H810.778L786.601 921.957C774.241 933.559 759.174 941.882 742.772 946.167H720.333V942.821C743.294 942.063 765.199 932.993 781.975 917.298L720.333 855.657V839.779L781.942 778.17C765.169 762.494 743.278 753.437 720.333 752.68V749.334H742.772C759.162 753.624 774.218 761.947 786.568 773.544L810.778 749.334H820.095L844.338 773.544C856.698 761.942 871.765 753.619 888.167 749.334H917.167V839.812V839.779V946.167H888.167C871.747 941.869 856.667 933.522 844.306 921.891L820.062 946.167V946.135ZM815.469 753.96L791.193 778.17C802.824 790.532 811.171 805.611 815.469 822.031C819.754 805.63 828.078 790.562 839.68 778.203L815.469 753.927V753.96ZM910.606 752.615C887.625 753.383 865.706 762.477 848.931 778.203L910.606 839.812V752.68V752.615ZM844.338 782.796C828.636 799.58 819.566 821.498 818.816 844.47H905.947L844.338 782.828V782.796ZM818.816 851.031C819.565 873.988 828.623 895.892 844.306 912.673L905.947 851.031H818.816ZM848.931 917.298C865.706 933.025 887.625 942.118 910.606 942.887V855.624L848.931 917.266V917.298ZM786.601 912.706C802.303 895.921 811.373 874.003 812.123 851.031H724.959L786.633 912.706H786.601ZM812.123 844.47C811.373 821.498 802.303 799.58 786.601 782.796L724.959 844.47H812.123Z" fill="#932902" fill-opacity="0.05"/>
</g>
<g clip-path="url(#clip37_293_1799)">
<path d="M1012.3 941.509L1036.51 917.266C1024.92 904.916 1016.59 889.86 1012.3 873.47C1008.02 889.872 999.695 904.939 988.092 917.298L1012.27 941.509H1012.3ZM1016.9 946.135L1016.93 946.167H1007.61L983.434 921.957C971.075 933.559 956.007 941.882 939.606 946.167H917.167V942.821C940.127 942.063 962.032 932.993 978.808 917.298L917.167 855.657V839.779L978.775 778.17C962.003 762.494 940.112 753.437 917.167 752.68V749.334H939.606C955.995 753.624 971.051 761.947 983.401 773.544L1007.61 749.334H1016.93L1041.17 773.544C1053.53 761.942 1068.6 753.619 1085 749.334H1114V839.812V839.779V946.167H1085C1068.58 941.869 1053.5 933.522 1041.14 921.891L1016.9 946.167V946.135ZM1012.3 753.96L988.027 778.17C999.658 790.532 1008 805.611 1012.3 822.031C1016.59 805.63 1024.91 790.562 1036.51 778.203L1012.3 753.927V753.96ZM1107.44 752.615C1084.46 753.383 1062.54 762.477 1045.76 778.203L1107.44 839.812V752.68V752.615ZM1041.17 782.796C1025.47 799.58 1016.4 821.498 1015.65 844.47H1102.78L1041.17 782.828V782.796ZM1015.65 851.031C1016.4 873.988 1025.46 895.892 1041.14 912.673L1102.78 851.031H1015.65ZM1045.76 917.298C1062.54 933.025 1084.46 942.118 1107.44 942.887V855.624L1045.76 917.266V917.298ZM983.434 912.706C999.136 895.921 1008.21 874.003 1008.96 851.031H921.792L983.467 912.706H983.434ZM1008.96 844.47C1008.21 821.498 999.136 799.58 983.434 782.796L921.792 844.47H1008.96Z" fill="#932902" fill-opacity="0.05"/>
</g>
<g clip-path="url(#clip38_293_1799)">
<path d="M1209.14 941.509L1233.35 917.266C1221.75 904.916 1213.43 889.86 1209.14 873.47C1204.85 889.872 1196.53 904.939 1184.93 917.298L1209.1 941.509H1209.14ZM1213.73 946.135L1213.76 946.167H1204.44L1180.27 921.957C1167.91 933.559 1152.84 941.882 1136.44 946.167H1114V942.821C1136.96 942.063 1158.87 932.993 1175.64 917.298L1114 855.657V839.779L1175.61 778.17C1158.84 762.494 1136.95 753.437 1114 752.68V749.334H1136.44C1152.83 753.624 1167.88 761.947 1180.23 773.544L1204.44 749.334H1213.76L1238 773.544C1250.36 761.942 1265.43 753.619 1281.83 749.334H1310.83V839.812V839.779V946.167H1281.83C1265.41 941.869 1250.33 933.522 1237.97 921.891L1213.73 946.167V946.135ZM1209.14 753.96L1184.86 778.17C1196.49 790.532 1204.84 805.611 1209.14 822.031C1213.42 805.63 1221.74 790.562 1233.35 778.203L1209.14 753.927V753.96ZM1304.27 752.615C1281.29 753.383 1259.37 762.477 1242.6 778.203L1304.27 839.812V752.68V752.615ZM1238 782.796C1222.3 799.58 1213.23 821.498 1212.48 844.47H1299.61L1238 782.828V782.796ZM1212.48 851.031C1213.23 873.988 1222.29 895.892 1237.97 912.673L1299.61 851.031H1212.48ZM1242.6 917.298C1259.37 933.025 1281.29 942.118 1304.27 942.887V855.624L1242.6 917.266V917.298ZM1180.27 912.706C1195.97 895.921 1205.04 874.003 1205.79 851.031H1118.63L1180.3 912.706H1180.27ZM1205.79 844.47C1205.04 821.498 1195.97 799.58 1180.27 782.796L1118.63 844.47H1205.79Z" fill="#932902" fill-opacity="0.05"/>
</g>
<g clip-path="url(#clip39_293_1799)">
<path d="M1405.97 941.509L1430.18 917.266C1418.58 904.916 1410.26 889.86 1405.97 873.47C1401.68 889.872 1393.36 904.939 1381.76 917.298L1405.94 941.509H1405.97ZM1410.56 946.135L1410.6 946.167H1401.28L1377.1 921.957C1364.74 933.559 1349.67 941.882 1333.27 946.167H1310.83V942.821C1333.79 942.063 1355.7 932.993 1372.48 917.298L1310.83 855.657V839.779L1372.44 778.17C1355.67 762.494 1333.78 753.437 1310.83 752.68V749.334H1333.27C1349.66 753.624 1364.72 761.947 1377.07 773.544L1401.28 749.334H1410.6L1434.84 773.544C1447.2 761.942 1462.27 753.619 1478.67 749.334H1507.67V839.812V839.779V946.167H1478.67C1462.25 941.869 1447.17 933.522 1434.81 921.891L1410.56 946.167V946.135ZM1405.97 753.96L1381.69 778.17C1393.32 790.532 1401.67 805.611 1405.97 822.031C1410.25 805.63 1418.58 790.562 1430.18 778.203L1405.97 753.927V753.96ZM1501.11 752.615C1478.12 753.383 1456.21 762.477 1439.43 778.203L1501.11 839.812V752.68V752.615ZM1434.84 782.796C1419.14 799.58 1410.07 821.498 1409.32 844.47H1496.45L1434.84 782.828V782.796ZM1409.32 851.031C1410.07 873.988 1419.12 895.892 1434.81 912.673L1496.45 851.031H1409.32ZM1439.43 917.298C1456.21 933.025 1478.12 942.118 1501.11 942.887V855.624L1439.43 917.266V917.298ZM1377.1 912.706C1392.8 895.921 1401.87 874.003 1402.62 851.031H1315.46L1377.13 912.706H1377.1ZM1402.62 844.47C1401.87 821.498 1392.8 799.58 1377.1 782.796L1315.46 844.47H1402.62Z" fill="#932902" fill-opacity="0.05"/>
</g>
<g clip-path="url(#clip40_293_1799)">
<path d="M28.136 1138.34L52.3465 1114.1C40.7489 1101.75 32.426 1086.69 28.136 1070.3C23.8512 1086.7 15.5279 1101.77 3.92555 1114.13L28.1032 1138.34H28.136ZM32.7288 1142.97L32.7616 1143H23.4449L-0.732841 1118.79C-13.0921 1130.39 -28.1596 1138.71 -44.5611 1143H-67.0001V1139.65C-44.0392 1138.89 -22.1347 1129.83 -5.35842 1114.13L-67.0001 1052.49V1036.61L-5.39123 975.002C-22.164 959.326 -44.055 950.269 -67.0001 949.512V946.166H-44.5611C-28.1713 950.456 -13.1156 958.779 -0.76564 970.377L23.4449 946.166H32.7616L57.0049 970.377C69.3642 958.774 84.4317 950.451 100.833 946.166H129.833V1036.64V1036.61V1143H100.833C84.4135 1138.7 69.3336 1130.35 56.9721 1118.72L32.7288 1143V1142.97ZM28.136 950.792L3.85994 975.002C15.4908 987.364 23.8373 1002.44 28.136 1018.86C32.4209 1002.46 40.7442 987.394 52.3465 975.035L28.136 950.759V950.792ZM123.272 949.447C100.291 950.215 78.3727 959.309 61.5977 975.035L123.272 1036.64V949.512V949.447ZM57.0049 979.628C41.3027 996.412 32.2326 1018.33 31.4822 1041.3H118.614L57.0049 979.66V979.628ZM31.4822 1047.86C32.2315 1070.82 41.2892 1092.72 56.9721 1109.5L118.614 1047.86H31.4822ZM61.5977 1114.13C78.3727 1129.86 100.291 1138.95 123.272 1139.72V1052.46L61.5977 1114.1V1114.13ZM-0.732841 1109.54C14.9694 1092.75 24.0395 1070.84 24.7899 1047.86H-62.3745L-0.700035 1109.54H-0.732841ZM24.7899 1041.3C24.0395 1018.33 14.9694 996.412 -0.732841 979.628L-62.3745 1041.3H24.7899Z" fill="#932902" fill-opacity="0.05"/>
</g>
<g clip-path="url(#clip41_293_1799)">
<path d="M224.969 1138.34L249.18 1114.1C237.582 1101.75 229.259 1086.69 224.969 1070.3C220.685 1086.7 212.361 1101.77 200.759 1114.13L224.937 1138.34H224.969ZM229.562 1142.97L229.595 1143H220.278L196.101 1118.79C183.741 1130.39 168.674 1138.71 152.272 1143H129.833V1139.65C152.794 1138.89 174.699 1129.83 191.475 1114.13L129.833 1052.49V1036.61L191.442 975.002C174.669 959.326 152.778 950.269 129.833 949.512V946.166H152.272C168.662 950.456 183.718 958.779 196.068 970.377L220.278 946.166H229.595L253.838 970.377C266.198 958.774 281.265 950.451 297.667 946.166H326.667V1036.64V1036.61V1143H297.667C281.247 1138.7 266.167 1130.35 253.806 1118.72L229.562 1143V1142.97ZM224.969 950.792L200.693 975.002C212.324 987.364 220.671 1002.44 224.969 1018.86C229.254 1002.46 237.578 987.394 249.18 975.035L224.969 950.759V950.792ZM320.106 949.447C297.125 950.215 275.206 959.309 258.431 975.035L320.106 1036.64V949.512V949.447ZM253.838 979.628C238.136 996.412 229.066 1018.33 228.316 1041.3H315.447L253.838 979.66V979.628ZM228.316 1047.86C229.065 1070.82 238.123 1092.72 253.806 1109.5L315.447 1047.86H228.316ZM258.431 1114.13C275.206 1129.86 297.125 1138.95 320.106 1139.72V1052.46L258.431 1114.1V1114.13ZM196.101 1109.54C211.803 1092.75 220.873 1070.84 221.623 1047.86H134.459L196.133 1109.54H196.101ZM221.623 1041.3C220.873 1018.33 211.803 996.412 196.101 979.628L134.459 1041.3H221.623Z" fill="#932902" fill-opacity="0.05"/>
</g>
<g clip-path="url(#clip42_293_1799)">
<path d="M421.803 1138.34L446.013 1114.1C434.416 1101.75 426.093 1086.69 421.803 1070.3C417.518 1086.7 409.195 1101.77 397.592 1114.13L421.77 1138.34H421.803ZM426.396 1142.97L426.428 1143H417.112L392.934 1118.79C380.575 1130.39 365.507 1138.71 349.106 1143H326.667V1139.65C349.627 1138.89 371.532 1129.83 388.308 1114.13L326.667 1052.49V1036.61L388.275 975.002C371.503 959.326 349.612 950.269 326.667 949.512V946.166H349.106C365.495 950.456 380.551 958.779 392.901 970.377L417.112 946.166H426.428L450.672 970.377C463.031 958.774 478.098 950.451 494.5 946.166H523.5V1036.64V1036.61V1143H494.5C478.08 1138.7 463 1130.35 450.639 1118.72L426.396 1143V1142.97ZM421.803 950.792L397.527 975.002C409.158 987.364 417.504 1002.44 421.803 1018.86C426.088 1002.46 434.411 987.394 446.013 975.035L421.803 950.759V950.792ZM516.939 949.447C493.958 950.215 472.039 959.309 455.264 975.035L516.939 1036.64V949.512V949.447ZM450.672 979.628C434.969 996.412 425.899 1018.33 425.149 1041.3H512.28L450.672 979.66V979.628ZM425.149 1047.86C425.898 1070.82 434.956 1092.72 450.639 1109.5L512.28 1047.86H425.149ZM455.264 1114.13C472.039 1129.86 493.958 1138.95 516.939 1139.72V1052.46L455.264 1114.1V1114.13ZM392.934 1109.54C408.636 1092.75 417.706 1070.84 418.457 1047.86H331.292L392.967 1109.54H392.934ZM418.457 1041.3C417.706 1018.33 408.636 996.412 392.934 979.628L331.292 1041.3H418.457Z" fill="#932902" fill-opacity="0.05"/>
</g>
<g clip-path="url(#clip43_293_1799)">
<path d="M618.636 1138.34L642.847 1114.1C631.249 1101.75 622.926 1086.69 618.636 1070.3C614.351 1086.7 606.028 1101.77 594.426 1114.13L618.603 1138.34H618.636ZM623.229 1142.97L623.262 1143H613.945L589.767 1118.79C577.408 1130.39 562.34 1138.71 545.939 1143H523.5V1139.65C546.461 1138.89 568.365 1129.83 585.142 1114.13L523.5 1052.49V1036.61L585.109 975.002C568.336 959.326 546.445 950.269 523.5 949.512V946.166H545.939C562.329 950.456 577.384 958.779 589.734 970.377L613.945 946.166H623.262L647.505 970.377C659.864 958.774 674.932 950.451 691.333 946.166H720.333V1036.64V1036.61V1143H691.333C674.914 1138.7 659.834 1130.35 647.472 1118.72L623.229 1143V1142.97ZM618.636 950.792L594.36 975.002C605.991 987.364 614.337 1002.44 618.636 1018.86C622.921 1002.46 631.244 987.394 642.847 975.035L618.636 950.759V950.792ZM713.772 949.447C690.791 950.215 668.873 959.309 652.098 975.035L713.772 1036.64V949.512V949.447ZM647.505 979.628C631.803 996.412 622.733 1018.33 621.982 1041.3H709.114L647.505 979.66V979.628ZM621.982 1047.86C622.732 1070.82 631.789 1092.72 647.472 1109.5L709.114 1047.86H621.982ZM652.098 1114.13C668.873 1129.86 690.791 1138.95 713.772 1139.72V1052.46L652.098 1114.1V1114.13ZM589.767 1109.54C605.469 1092.75 614.54 1070.84 615.29 1047.86H528.126L589.8 1109.54H589.767ZM615.29 1041.3C614.54 1018.33 605.469 996.412 589.767 979.628L528.126 1041.3H615.29Z" fill="#932902" fill-opacity="0.05"/>
</g>
<g clip-path="url(#clip44_293_1799)">
<path d="M815.469 1138.34L839.68 1114.1C828.082 1101.75 819.759 1086.69 815.469 1070.3C811.185 1086.7 802.861 1101.77 791.259 1114.13L815.437 1138.34H815.469ZM820.062 1142.97L820.095 1143H810.778L786.601 1118.79C774.241 1130.39 759.174 1138.71 742.772 1143H720.333V1139.65C743.294 1138.89 765.199 1129.83 781.975 1114.13L720.333 1052.49V1036.61L781.942 975.002C765.169 959.326 743.278 950.269 720.333 949.512V946.166H742.772C759.162 950.456 774.218 958.779 786.568 970.377L810.778 946.166H820.095L844.338 970.377C856.698 958.774 871.765 950.451 888.167 946.166H917.167V1036.64V1036.61V1143H888.167C871.747 1138.7 856.667 1130.35 844.306 1118.72L820.062 1143V1142.97ZM815.469 950.792L791.193 975.002C802.824 987.364 811.171 1002.44 815.469 1018.86C819.754 1002.46 828.078 987.394 839.68 975.035L815.469 950.759V950.792ZM910.606 949.447C887.625 950.215 865.706 959.309 848.931 975.035L910.606 1036.64V949.512V949.447ZM844.338 979.628C828.636 996.412 819.566 1018.33 818.816 1041.3H905.947L844.338 979.66V979.628ZM818.816 1047.86C819.565 1070.82 828.623 1092.72 844.306 1109.5L905.947 1047.86H818.816ZM848.931 1114.13C865.706 1129.86 887.625 1138.95 910.606 1139.72V1052.46L848.931 1114.1V1114.13ZM786.601 1109.54C802.303 1092.75 811.373 1070.84 812.123 1047.86H724.959L786.633 1109.54H786.601ZM812.123 1041.3C811.373 1018.33 802.303 996.412 786.601 979.628L724.959 1041.3H812.123Z" fill="#932902" fill-opacity="0.05"/>
</g>
<g clip-path="url(#clip45_293_1799)">
<path d="M1012.3 1138.34L1036.51 1114.1C1024.92 1101.75 1016.59 1086.69 1012.3 1070.3C1008.02 1086.7 999.695 1101.77 988.092 1114.13L1012.27 1138.34H1012.3ZM1016.9 1142.97L1016.93 1143H1007.61L983.434 1118.79C971.075 1130.39 956.007 1138.71 939.606 1143H917.167V1139.65C940.127 1138.89 962.032 1129.83 978.808 1114.13L917.167 1052.49V1036.61L978.775 975.002C962.003 959.326 940.112 950.269 917.167 949.512V946.166H939.606C955.995 950.456 971.051 958.779 983.401 970.377L1007.61 946.166H1016.93L1041.17 970.377C1053.53 958.774 1068.6 950.451 1085 946.166H1114V1036.64V1036.61V1143H1085C1068.58 1138.7 1053.5 1130.35 1041.14 1118.72L1016.9 1143V1142.97ZM1012.3 950.792L988.027 975.002C999.658 987.364 1008 1002.44 1012.3 1018.86C1016.59 1002.46 1024.91 987.394 1036.51 975.035L1012.3 950.759V950.792ZM1107.44 949.447C1084.46 950.215 1062.54 959.309 1045.76 975.035L1107.44 1036.64V949.512V949.447ZM1041.17 979.628C1025.47 996.412 1016.4 1018.33 1015.65 1041.3H1102.78L1041.17 979.66V979.628ZM1015.65 1047.86C1016.4 1070.82 1025.46 1092.72 1041.14 1109.5L1102.78 1047.86H1015.65ZM1045.76 1114.13C1062.54 1129.86 1084.46 1138.95 1107.44 1139.72V1052.46L1045.76 1114.1V1114.13ZM983.434 1109.54C999.136 1092.75 1008.21 1070.84 1008.96 1047.86H921.792L983.467 1109.54H983.434ZM1008.96 1041.3C1008.21 1018.33 999.136 996.412 983.434 979.628L921.792 1041.3H1008.96Z" fill="#932902" fill-opacity="0.05"/>
</g>
<g clip-path="url(#clip46_293_1799)">
<path d="M1209.14 1138.34L1233.35 1114.1C1221.75 1101.75 1213.43 1086.69 1209.14 1070.3C1204.85 1086.7 1196.53 1101.77 1184.93 1114.13L1209.1 1138.34H1209.14ZM1213.73 1142.97L1213.76 1143H1204.44L1180.27 1118.79C1167.91 1130.39 1152.84 1138.71 1136.44 1143H1114V1139.65C1136.96 1138.89 1158.87 1129.83 1175.64 1114.13L1114 1052.49V1036.61L1175.61 975.002C1158.84 959.326 1136.95 950.269 1114 949.512V946.166H1136.44C1152.83 950.456 1167.88 958.779 1180.23 970.377L1204.44 946.166H1213.76L1238 970.377C1250.36 958.774 1265.43 950.451 1281.83 946.166H1310.83V1036.64V1036.61V1143H1281.83C1265.41 1138.7 1250.33 1130.35 1237.97 1118.72L1213.73 1143V1142.97ZM1209.14 950.792L1184.86 975.002C1196.49 987.364 1204.84 1002.44 1209.14 1018.86C1213.42 1002.46 1221.74 987.394 1233.35 975.035L1209.14 950.759V950.792ZM1304.27 949.447C1281.29 950.215 1259.37 959.309 1242.6 975.035L1304.27 1036.64V949.512V949.447ZM1238 979.628C1222.3 996.412 1213.23 1018.33 1212.48 1041.3H1299.61L1238 979.66V979.628ZM1212.48 1047.86C1213.23 1070.82 1222.29 1092.72 1237.97 1109.5L1299.61 1047.86H1212.48ZM1242.6 1114.13C1259.37 1129.86 1281.29 1138.95 1304.27 1139.72V1052.46L1242.6 1114.1V1114.13ZM1180.27 1109.54C1195.97 1092.75 1205.04 1070.84 1205.79 1047.86H1118.63L1180.3 1109.54H1180.27ZM1205.79 1041.3C1205.04 1018.33 1195.97 996.412 1180.27 979.628L1118.63 1041.3H1205.79Z" fill="#932902" fill-opacity="0.05"/>
</g>
<g clip-path="url(#clip47_293_1799)">
<path d="M1405.97 1138.34L1430.18 1114.1C1418.58 1101.75 1410.26 1086.69 1405.97 1070.3C1401.68 1086.7 1393.36 1101.77 1381.76 1114.13L1405.94 1138.34H1405.97ZM1410.56 1142.97L1410.6 1143H1401.28L1377.1 1118.79C1364.74 1130.39 1349.67 1138.71 1333.27 1143H1310.83V1139.65C1333.79 1138.89 1355.7 1129.83 1372.48 1114.13L1310.83 1052.49V1036.61L1372.44 975.002C1355.67 959.326 1333.78 950.269 1310.83 949.512V946.166H1333.27C1349.66 950.456 1364.72 958.779 1377.07 970.377L1401.28 946.166H1410.6L1434.84 970.377C1447.2 958.774 1462.27 950.451 1478.67 946.166H1507.67V1036.64V1036.61V1143H1478.67C1462.25 1138.7 1447.17 1130.35 1434.81 1118.72L1410.56 1143V1142.97ZM1405.97 950.792L1381.69 975.002C1393.32 987.364 1401.67 1002.44 1405.97 1018.86C1410.25 1002.46 1418.58 987.394 1430.18 975.035L1405.97 950.759V950.792ZM1501.11 949.447C1478.12 950.215 1456.21 959.309 1439.43 975.035L1501.11 1036.64V949.512V949.447ZM1434.84 979.628C1419.14 996.412 1410.07 1018.33 1409.32 1041.3H1496.45L1434.84 979.66V979.628ZM1409.32 1047.86C1410.07 1070.82 1419.12 1092.72 1434.81 1109.5L1496.45 1047.86H1409.32ZM1439.43 1114.13C1456.21 1129.86 1478.12 1138.95 1501.11 1139.72V1052.46L1439.43 1114.1V1114.13ZM1377.1 1109.54C1392.8 1092.75 1401.87 1070.84 1402.62 1047.86H1315.46L1377.13 1109.54H1377.1ZM1402.62 1041.3C1401.87 1018.33 1392.8 996.412 1377.1 979.628L1315.46 1041.3H1402.62Z" fill="#932902" fill-opacity="0.05"/>
</g>
<defs>
<clipPath id="clip0_293_1799">
<rect width="196.833" height="196.833" fill="white" transform="translate(-67 -38)"/>
</clipPath>
<clipPath id="clip1_293_1799">
<rect width="196.833" height="196.833" fill="white" transform="translate(129.833 -38)"/>
</clipPath>
<clipPath id="clip2_293_1799">
<rect width="196.833" height="196.833" fill="white" transform="translate(326.667 -38)"/>
</clipPath>
<clipPath id="clip3_293_1799">
<rect width="196.833" height="196.833" fill="white" transform="translate(523.5 -38)"/>
</clipPath>
<clipPath id="clip4_293_1799">
<rect width="196.833" height="196.833" fill="white" transform="translate(720.333 -38)"/>
</clipPath>
<clipPath id="clip5_293_1799">
<rect width="196.833" height="196.833" fill="white" transform="translate(917.167 -38)"/>
</clipPath>
<clipPath id="clip6_293_1799">
<rect width="196.833" height="196.833" fill="white" transform="translate(1114 -38)"/>
</clipPath>
<clipPath id="clip7_293_1799">
<rect width="196.833" height="196.833" fill="white" transform="translate(1310.83 -38)"/>
</clipPath>
<clipPath id="clip8_293_1799">
<rect width="196.833" height="196.833" fill="white" transform="translate(-67 158.833)"/>
</clipPath>
<clipPath id="clip9_293_1799">
<rect width="196.833" height="196.833" fill="white" transform="translate(129.833 158.833)"/>
</clipPath>
<clipPath id="clip10_293_1799">
<rect width="196.833" height="196.833" fill="white" transform="translate(326.667 158.833)"/>
</clipPath>
<clipPath id="clip11_293_1799">
<rect width="196.833" height="196.833" fill="white" transform="translate(523.5 158.833)"/>
</clipPath>
<clipPath id="clip12_293_1799">
<rect width="196.833" height="196.833" fill="white" transform="translate(720.333 158.833)"/>
</clipPath>
<clipPath id="clip13_293_1799">
<rect width="196.833" height="196.833" fill="white" transform="translate(917.167 158.833)"/>
</clipPath>
<clipPath id="clip14_293_1799">
<rect width="196.833" height="196.833" fill="white" transform="translate(1114 158.833)"/>
</clipPath>
<clipPath id="clip15_293_1799">
<rect width="196.833" height="196.833" fill="white" transform="translate(1310.83 158.833)"/>
</clipPath>
<clipPath id="clip16_293_1799">
<rect width="196.833" height="196.833" fill="white" transform="translate(-67 355.667)"/>
</clipPath>
<clipPath id="clip17_293_1799">
<rect width="196.833" height="196.833" fill="white" transform="translate(129.833 355.667)"/>
</clipPath>
<clipPath id="clip18_293_1799">
<rect width="196.833" height="196.833" fill="white" transform="translate(326.667 355.667)"/>
</clipPath>
<clipPath id="clip19_293_1799">
<rect width="196.833" height="196.833" fill="white" transform="translate(523.5 355.667)"/>
</clipPath>
<clipPath id="clip20_293_1799">
<rect width="196.833" height="196.833" fill="white" transform="translate(720.333 355.667)"/>
</clipPath>
<clipPath id="clip21_293_1799">
<rect width="196.833" height="196.833" fill="white" transform="translate(917.167 355.667)"/>
</clipPath>
<clipPath id="clip22_293_1799">
<rect width="196.833" height="196.833" fill="white" transform="translate(1114 355.667)"/>
</clipPath>
<clipPath id="clip23_293_1799">
<rect width="196.833" height="196.833" fill="white" transform="translate(1310.83 355.667)"/>
</clipPath>
<clipPath id="clip24_293_1799">
<rect width="196.833" height="196.833" fill="white" transform="translate(-67 552.5)"/>
</clipPath>
<clipPath id="clip25_293_1799">
<rect width="196.833" height="196.833" fill="white" transform="translate(129.833 552.5)"/>
</clipPath>
<clipPath id="clip26_293_1799">
<rect width="196.833" height="196.833" fill="white" transform="translate(326.667 552.5)"/>
</clipPath>
<clipPath id="clip27_293_1799">
<rect width="196.833" height="196.833" fill="white" transform="translate(523.5 552.5)"/>
</clipPath>
<clipPath id="clip28_293_1799">
<rect width="196.833" height="196.833" fill="white" transform="translate(720.333 552.5)"/>
</clipPath>
<clipPath id="clip29_293_1799">
<rect width="196.833" height="196.833" fill="white" transform="translate(917.167 552.5)"/>
</clipPath>
<clipPath id="clip30_293_1799">
<rect width="196.833" height="196.833" fill="white" transform="translate(1114 552.5)"/>
</clipPath>
<clipPath id="clip31_293_1799">
<rect width="196.833" height="196.833" fill="white" transform="translate(1310.83 552.5)"/>
</clipPath>
<clipPath id="clip32_293_1799">
<rect width="196.833" height="196.833" fill="white" transform="translate(-67 749.333)"/>
</clipPath>
<clipPath id="clip33_293_1799">
<rect width="196.833" height="196.833" fill="white" transform="translate(129.833 749.333)"/>
</clipPath>
<clipPath id="clip34_293_1799">
<rect width="196.833" height="196.833" fill="white" transform="translate(326.667 749.333)"/>
</clipPath>
<clipPath id="clip35_293_1799">
<rect width="196.833" height="196.833" fill="white" transform="translate(523.5 749.333)"/>
</clipPath>
<clipPath id="clip36_293_1799">
<rect width="196.833" height="196.833" fill="white" transform="translate(720.333 749.333)"/>
</clipPath>
<clipPath id="clip37_293_1799">
<rect width="196.833" height="196.833" fill="white" transform="translate(917.167 749.333)"/>
</clipPath>
<clipPath id="clip38_293_1799">
<rect width="196.833" height="196.833" fill="white" transform="translate(1114 749.333)"/>
</clipPath>
<clipPath id="clip39_293_1799">
<rect width="196.833" height="196.833" fill="white" transform="translate(1310.83 749.333)"/>
</clipPath>
<clipPath id="clip40_293_1799">
<rect width="196.833" height="196.833" fill="white" transform="translate(-67 946.167)"/>
</clipPath>
<clipPath id="clip41_293_1799">
<rect width="196.833" height="196.833" fill="white" transform="translate(129.833 946.167)"/>
</clipPath>
<clipPath id="clip42_293_1799">
<rect width="196.833" height="196.833" fill="white" transform="translate(326.667 946.167)"/>
</clipPath>
<clipPath id="clip43_293_1799">
<rect width="196.833" height="196.833" fill="white" transform="translate(523.5 946.167)"/>
</clipPath>
<clipPath id="clip44_293_1799">
<rect width="196.833" height="196.833" fill="white" transform="translate(720.333 946.167)"/>
</clipPath>
<clipPath id="clip45_293_1799">
<rect width="196.833" height="196.833" fill="white" transform="translate(917.167 946.167)"/>
</clipPath>
<clipPath id="clip46_293_1799">
<rect width="196.833" height="196.833" fill="white" transform="translate(1114 946.167)"/>
</clipPath>
<clipPath id="clip47_293_1799">
<rect width="196.833" height="196.833" fill="white" transform="translate(1310.83 946.167)"/>
</clipPath>
</defs>
</svg>
