<svg width="195" height="36" viewBox="0 0 195 36" fill="none" xmlns="http://www.w3.org/2000/svg">
<path fill-rule="evenodd" clip-rule="evenodd" d="M17.3087 35.2807C26.868 35.2807 34.6173 27.5442 34.6173 18.0007C34.6173 8.45723 26.868 0.720703 17.3087 0.720703C7.74934 0.720703 0 8.45723 0 18.0007C0 27.5442 7.74934 35.2807 17.3087 35.2807ZM22.7084 8.77045C22.9712 7.83838 22.0652 7.28721 21.2377 7.87575L9.6869 16.0909C8.78953 16.7291 8.93068 18.0007 9.89893 18.0007H12.9406V17.9772H18.8686L14.0384 19.6786L11.909 27.231C11.6462 28.163 12.5521 28.7142 13.3796 28.1256L24.9305 19.9105C25.8278 19.2723 25.6866 18.0007 24.7184 18.0007H20.1058L22.7084 8.77045Z" fill="#F55B23"/>
<path d="M48.2676 26V5.82328H52.1877L59.2207 22.3682L66.2537 5.82328H70.1738V26H67.0032V11.6457L60.8925 26H57.5489L51.4671 11.7322L51.4383 26H48.2676ZM72.0989 26.98L75.0966 26.5765C74.9813 28.7959 76.3937 30.093 78.4402 30.093C80.7461 30.093 82.3026 28.45 82.3026 25.8271V23.8094C81.2361 25.1065 79.7949 25.7694 77.979 25.7694C74.8948 25.7694 73.0501 23.6941 73.0501 20.3217L72.9925 12.0492H76.1631V19.7164C76.1631 21.8494 77.1143 22.9158 78.9878 22.9158C80.9767 22.9158 82.3026 21.3882 82.3026 18.8805V12.0492H85.4732V25.7118C85.4732 29.8624 82.6196 32.9177 78.4402 32.9177C74.6354 32.9177 71.926 30.5542 72.0989 26.98ZM88.2957 26V5.82328H97.2887C101.122 5.82328 103.572 8.35978 103.572 11.8763C103.572 14.6434 102.102 16.7764 99.6523 17.6123L103.659 26.0288H100.2L96.424 17.9581H91.4663V26H88.2957ZM91.4663 14.9028H97.087C99.1623 14.9028 100.402 13.7499 100.402 11.8763C100.402 10.0316 99.1623 8.87861 97.087 8.87861H91.4663V14.9028ZM110.942 11.6169C114.718 11.6169 117.226 14.384 117.226 18.304V19.774H106.993C107.339 22.1664 108.924 23.6076 111.144 23.6076C112.96 23.6076 114.401 22.4547 114.66 20.7252L117.6 21.2729C117.139 24.2994 114.372 26.4324 111.086 26.4324C106.849 26.4324 104.024 23.2617 104.024 19.0534C104.024 14.874 106.82 11.6169 110.942 11.6169ZM107.137 17.2952H114.372C114.286 15.6522 112.902 14.3552 110.942 14.3552C109.068 14.3552 107.627 15.5369 107.137 17.2952ZM118.559 21.1288L121.528 20.5523C121.845 22.397 123.056 23.5211 124.901 23.5211C126.601 23.5211 127.552 22.8294 127.552 21.8782C127.552 20.9846 126.803 20.437 124.612 20.2064C121.24 19.8605 119.482 18.2752 119.482 15.7387C119.482 13.3463 121.73 11.5881 124.67 11.5881C127.178 11.5881 129.34 13.231 130.031 15.7963L127.322 16.6322C126.976 15.2487 126.025 14.5281 124.67 14.5281C123.431 14.5281 122.624 14.9605 122.624 15.7387C122.624 16.5169 123.142 16.9493 124.958 17.1511C128.734 17.5258 130.637 19.0534 130.637 21.7341C130.637 24.53 128.244 26.4324 124.901 26.4324C123.258 26.4324 121.874 25.9424 120.721 24.9912C119.568 24.0112 118.848 22.7141 118.559 21.1288ZM144.667 12.0492V26H141.496V24.53C140.458 25.7982 139.046 26.4324 137.259 26.4324C134.175 26.4324 132.388 24.3859 132.388 21.0423V12.0492H135.558V20.437C135.558 22.5411 136.452 23.5788 138.268 23.5788C140.228 23.5788 141.496 22.0511 141.496 19.6011V12.0492H144.667ZM147.321 26V12.0781H150.376V13.6346C151.154 12.3375 152.336 11.6169 153.864 11.6169C155.737 11.6169 157.035 12.424 157.611 14.0381C158.418 12.5104 159.773 11.6169 161.531 11.6169C164.183 11.6169 165.653 13.2022 165.653 16.344L165.711 26H162.626V17.0934C162.626 15.2487 161.963 14.4704 160.551 14.4704C159.052 14.4704 158.13 15.5369 157.986 17.7275L158.072 26H155.075V17.0934C155.075 15.2487 154.412 14.4704 152.942 14.4704C151.356 14.4704 150.376 15.7387 150.376 18.1887V26H147.321ZM167.094 26L175.338 5.82328H179.056L187.3 26H183.812L181.65 20.6099H172.744L170.553 26H167.094ZM173.954 17.5834H180.411L177.182 9.57039L173.954 17.5834ZM188.845 26V5.82328H192.015V26H188.845Z" fill="white"/>
</svg>
