<svg width="116" height="136" viewBox="0 0 116 136" fill="none" xmlns="http://www.w3.org/2000/svg">
<path d="M41.1942 135.24C63.9452 135.24 82.3884 116.797 82.3884 94.0458C82.3884 71.2948 63.9452 52.8516 41.1942 52.8516C18.4433 52.8516 0 71.2948 0 94.0458C0 116.797 18.4433 135.24 41.1942 135.24Z" fill="#EEF2FE"/>
<path d="M82.1111 98.8493C79.7309 119.337 62.3204 135.239 41.1943 135.239C39.3541 135.239 37.5454 135.118 35.7699 134.884C35.0135 134.784 34.2627 134.665 33.521 134.525C32.0027 127.079 29.2396 114.679 29.1823 114.412L29.1804 114.407C34.7805 112.075 40.9151 109.753 47.5638 107.567L49.7905 103.98L69.6626 98.5645L73.3097 100.582H73.3115C76.3335 99.9312 79.2704 99.3578 82.1111 98.8493Z" fill="#FF9C39"/>
<path d="M35.7699 134.885C35.0134 134.785 34.2626 134.667 33.5209 134.526C30.0015 133.862 26.6411 132.753 23.5007 131.257C24.542 124.388 26.3877 115.732 29.1803 114.408L29.1822 114.414L35.7699 134.885Z" fill="#FF9C39"/>
<path d="M60.8149 96.856C55.0244 98.4002 49.0766 94.9584 47.5305 89.1679L45.805 82.6986C44.2607 76.908 47.7025 70.9602 53.493 69.4141C59.2836 67.8698 65.2314 71.3116 66.7775 77.1022L68.503 83.5715C70.0473 89.3639 66.6055 95.3098 60.8149 96.856Z" fill="#F2A89B"/>
<path d="M65.7048 74.498C64.9909 73.2534 64.0477 72.1807 62.9436 71.3281C62.9436 71.3281 62.9029 72.8946 62.2298 74.4721C61.6231 75.8962 60.5061 77.3258 58.4477 77.6328C60.2379 78.2801 61.8895 81.9383 59.7645 82.5357L57.3029 88.2208C57.3029 88.2208 56.319 92.1897 51.1517 93.8856C45.9862 95.5815 41.5457 92.432 42.0303 84.5219C33.5543 86.0551 35.4907 73.8655 44.2903 69.5064C47.2771 57.6405 56.9644 61.0305 55.9158 64.6628C57.0458 62.9668 62.1354 61.5945 64.9558 63.8545C67.6708 66.0276 69.2354 71.3632 65.7048 74.498Z" fill="#1F2C49"/>
<path d="M64.8129 80.6183C65.1195 80.5579 65.2808 80.0654 65.173 79.5182C65.0653 78.971 64.7294 78.5764 64.4227 78.6368C64.116 78.6971 63.9548 79.1897 64.0625 79.7369C64.1703 80.2841 64.5062 80.6787 64.8129 80.6183Z" fill="#1F2C49"/>
<path d="M62.7605 76.7073C62.7956 76.6444 62.9214 76.4447 63.1803 76.3374C63.4466 76.2283 63.6834 76.2874 63.7499 76.3078" stroke="#1F2C49" stroke-width="1.09357" stroke-miterlimit="10" stroke-linecap="round" stroke-linejoin="round"/>
<path d="M67.1475 78.4922C67.5118 79.8589 69.0746 81.0111 70.1639 81.6677C70.58 81.9192 70.5227 82.5406 70.0677 82.7144L68.4402 83.3377L67.1475 78.4922Z" fill="#ED8274"/>
<path d="M63.3025 85.6504C63.4634 85.778 64.1477 86.2922 65.1186 86.2163C65.8455 86.159 66.343 85.802 66.5316 85.6504" stroke="#F27F70" stroke-width="0.911215" stroke-miterlimit="10" stroke-linecap="round" stroke-linejoin="round"/>
<path d="M57.3028 88.219C59.1679 88.219 60.6799 86.707 60.6799 84.8419C60.6799 82.9768 59.1679 81.4648 57.3028 81.4648C55.4377 81.4648 53.9258 82.9768 53.9258 84.8419C53.9258 86.707 55.4377 88.219 57.3028 88.219Z" fill="#F2A89B"/>
<path d="M57.3024 86.347C58.1328 86.347 58.806 85.6738 58.806 84.8434C58.806 84.013 58.1328 83.3398 57.3024 83.3398C56.472 83.3398 55.7988 84.013 55.7988 84.8434C55.7988 85.6738 56.472 86.347 57.3024 86.347Z" fill="#ED8274"/>
<path d="M0 11.1354V28.0485C0 34.1978 4.98606 39.1839 11.1354 39.1839H91.1326L104.865 52.8512V39.1839C111.016 39.1839 116 34.1978 116 28.0485V11.1354C116 4.98606 111.014 5.14137e-07 104.865 5.14137e-07H11.1354C4.98421 -0.00184892 0 4.98606 0 11.1354Z" fill="#FF7340"/>
<path d="M104.385 23.6103C105.843 23.6103 107.023 22.4304 107.023 20.9731V16.8414C107.023 15.3841 105.843 14.2041 104.385 14.2041C102.928 14.2041 101.748 15.3841 101.748 16.8414V20.9731C101.748 22.4304 102.93 23.6103 104.385 23.6103ZM90.966 21.3781H91.2989C92.6638 21.3781 93.7698 20.2721 93.7698 18.9073C93.7698 17.5424 92.6638 16.4364 91.2989 16.4364H90.966C89.6011 16.4364 88.4952 17.5424 88.4952 18.9073C88.4952 20.2721 89.6011 21.3781 90.966 21.3781ZM77.8794 24.6146C79.3368 24.6146 80.5167 23.4347 80.5167 21.9773V15.8354C80.5167 14.378 79.3368 13.1981 77.8794 13.1981C76.4221 13.1981 75.2422 14.378 75.2422 15.8354V21.9773C75.2422 23.4347 76.424 24.6146 77.8794 24.6146ZM64.6264 27.0411C66.0838 27.0411 67.2637 25.8611 67.2637 24.4038V13.4089C67.2637 11.9515 66.0838 10.7716 64.6264 10.7716C63.1691 10.7716 61.9891 11.9515 61.9891 13.4089V24.4038C61.9891 25.8611 63.1691 27.0411 64.6264 27.0411ZM51.3734 29.1328C52.8307 29.1328 54.0107 27.9528 54.0107 26.4955V11.3209C54.0107 9.86353 52.8307 8.68359 51.3734 8.68359C49.916 8.68359 48.7361 9.86353 48.7361 11.3209V26.4955C48.7361 27.951 49.916 29.1328 51.3734 29.1328ZM38.1204 25.5079C39.5777 25.5079 40.7577 24.3279 40.7577 22.8706V14.9421C40.7577 13.4847 39.5777 12.3048 38.1204 12.3048C36.663 12.3048 35.4831 13.4847 35.4831 14.9421V22.8706C35.4831 24.3279 36.663 25.5079 38.1204 25.5079ZM24.8674 28.2691C26.3247 28.2691 27.5047 27.0891 27.5047 25.6318V12.1809C27.5047 10.7235 26.3247 9.54358 24.8674 9.54358C23.41 9.54358 22.2301 10.7235 22.2301 12.1809V25.6318C22.2301 27.0891 23.41 28.2691 24.8674 28.2691ZM11.6143 27.0411C13.0717 27.0411 14.2516 25.8611 14.2516 24.4038V13.4089C14.2516 11.9515 13.0717 10.7716 11.6143 10.7716C10.157 10.7716 8.97705 11.9515 8.97705 13.4089V24.4038C8.97705 25.8611 10.157 27.0411 11.6143 27.0411Z" fill="white"/>
</svg>
