<svg width="116" height="136" viewBox="0 0 116 136" fill="none" xmlns="http://www.w3.org/2000/svg">
<path d="M74.1019 135.43C96.8529 135.43 115.296 116.986 115.296 94.2353C115.296 71.4843 96.8529 53.041 74.1019 53.041C51.351 53.041 32.9077 71.4843 32.9077 94.2353C32.9077 116.986 51.351 135.43 74.1019 135.43Z" fill="#EEF2FE"/>
<path d="M71.3965 74.1602C65.384 75.2495 61.6352 78.129 62.4101 85.4251C63.1869 92.7211 71.3965 74.1602 71.3965 74.1602Z" fill="#1F2C49"/>
<path d="M73.2179 104.324C79.3044 104.392 84.2923 99.5135 84.3607 93.4271L84.4439 85.9424C84.5123 79.8559 79.6336 74.868 73.5471 74.7995C67.4606 74.7311 62.4727 79.6099 62.4043 85.6964L62.321 93.1811C62.2526 99.2676 67.1314 104.255 73.2179 104.324Z" fill="#F2A89B"/>
<path d="M82.6409 89.3361C80.7563 89.6154 81.3481 84.0486 81.3481 84.0486C77.0482 84.9567 70.5567 82.4377 69.9131 75.3729C70.4698 71.4077 80.797 73.8878 83.8781 79.2567C86.5136 83.8489 85.2412 88.7018 85.2412 88.7018L82.6409 89.3361Z" fill="#1F2C49"/>
<path d="M86.4821 93.7854C88.626 93.7854 90.364 92.0474 90.364 89.9034C90.364 87.7595 88.626 86.0215 86.4821 86.0215C84.3381 86.0215 82.6001 87.7595 82.6001 89.9034C82.6001 92.0474 84.3381 93.7854 86.4821 93.7854Z" fill="#F2A89B"/>
<path d="M86.7131 83.1363C91.477 83.1363 95.3389 79.2744 95.3389 74.5105C95.3389 69.7467 91.477 65.8848 86.7131 65.8848C81.9493 65.8848 78.0874 69.7467 78.0874 74.5105C78.0874 79.2744 81.9493 83.1363 86.7131 83.1363Z" fill="#1F2C49"/>
<path d="M86.4821 91.2688C87.2359 91.2688 87.8469 90.6578 87.8469 89.9039C87.8469 89.1501 87.2359 88.5391 86.4821 88.5391C85.7283 88.5391 85.1172 89.1501 85.1172 89.9039C85.1172 90.6578 85.7283 91.2688 86.4821 91.2688Z" fill="#ED8274"/>
<path d="M74.0347 88.5739C74.0373 87.8589 73.7223 87.2781 73.3311 87.2767C72.9399 87.2752 72.6206 87.8537 72.618 88.5687C72.6154 89.2837 72.9304 89.8644 73.3216 89.8659C73.7128 89.8673 74.032 89.2888 74.0347 88.5739Z" fill="#1F2C49"/>
<path d="M74.7847 85.9313C74.7496 85.8555 74.5609 85.4727 74.1097 85.3136C73.749 85.186 73.4384 85.2785 73.3403 85.3099" stroke="#1F2C49" stroke-width="1.09357" stroke-miterlimit="10" stroke-linecap="round" stroke-linejoin="round"/>
<path d="M66.8271 88.5485C66.8298 87.8335 66.5147 87.2527 66.1235 87.2513C65.7323 87.2499 65.4131 87.8283 65.4105 88.5433C65.4079 89.2583 65.7229 89.839 66.1141 89.8405C66.5053 89.8419 66.8245 89.2634 66.8271 88.5485Z" fill="#1F2C49"/>
<path d="M64.6807 85.8953C64.7158 85.8213 64.9082 85.4385 65.3613 85.2813C65.7219 85.1574 66.0344 85.2499 66.1306 85.285" stroke="#1F2C49" stroke-width="1.09357" stroke-miterlimit="10" stroke-linecap="round" stroke-linejoin="round"/>
<path d="M69.2916 88.5605C69.2842 90.4414 68.0673 91.945 67.1389 92.8216C66.8171 93.125 67.0334 93.6668 67.4754 93.6687L68.6572 93.6724C68.9975 93.6742 69.2749 93.3987 69.2749 93.0584L69.2916 88.5605Z" fill="#ED8274"/>
<path d="M74.9507 94.4316C74.849 94.6776 74.4496 95.5469 73.4564 96.0665C72.5631 96.5326 71.7235 96.4364 71.4424 96.392" stroke="#F27F70" stroke-width="0.911216" stroke-miterlimit="10" stroke-linecap="round" stroke-linejoin="round"/>
<path d="M56.059 130.82L56.2366 131.362C56.0442 131.269 55.85 131.173 55.6577 131.077C54.5351 130.515 53.4421 129.903 52.3823 129.242C49.9614 127.739 47.7107 125.989 45.6597 124.031C45.9038 117.657 47.3094 112.989 49.9208 112.035L56.059 130.82Z" fill="#AEC9FF"/>
<path d="M111.847 110.766C110.617 113.573 109.08 116.216 107.283 118.653C106.086 120.279 104.773 121.81 103.355 123.238C102.498 124.106 101.601 124.932 100.667 125.718C100.175 126.134 99.6724 126.539 99.162 126.932C92.2192 132.26 83.5306 135.428 74.1041 135.428C69.0459 135.428 64.2004 134.516 59.7247 132.846C59.3271 132.7 58.9313 132.545 58.5392 132.384C57.7606 132.067 56.9913 131.725 56.2367 131.359C56.0443 131.267 55.8502 131.17 55.6578 131.074C54.5352 130.512 53.4422 129.9 52.3825 129.24C52.2789 128.696 52.1772 128.161 52.081 127.634C51.0675 122.125 50.3518 116.908 49.9209 112.033C51.2395 111.751 52.5933 111.478 53.9804 111.211C54.2652 111.158 54.5519 111.102 54.8385 111.049C55.902 110.849 56.9857 110.655 58.0861 110.468C59.0959 110.296 60.1205 110.129 61.1617 109.967C61.3115 109.943 61.4632 109.92 61.613 109.896C61.6185 109.895 61.6222 109.895 61.6278 109.895C61.785 109.871 61.9403 109.848 62.0975 109.824C62.1012 109.822 62.1049 109.822 62.1068 109.822C62.2067 109.808 62.3047 109.793 62.4046 109.778C62.5673 109.754 62.7319 109.73 62.8965 109.706C62.9409 109.699 62.9853 109.693 63.0297 109.686C63.0389 109.686 63.05 109.684 63.0592 109.682C63.0722 109.678 63.087 109.676 63.0999 109.674C63.1314 109.669 63.1628 109.665 63.1961 109.662C63.2331 109.654 63.2664 109.65 63.3034 109.647C63.5734 109.608 63.8416 109.569 64.1134 109.53C64.2484 109.51 64.3853 109.491 64.5221 109.473C64.5554 109.467 64.5887 109.464 64.622 109.46C64.7922 109.436 64.9623 109.414 65.1343 109.39C65.3895 109.355 65.6484 109.319 65.9074 109.288C65.9351 109.282 65.9628 109.281 65.9924 109.277C66.0498 109.269 66.109 109.262 66.1681 109.253C66.2403 109.244 66.3142 109.232 66.3882 109.225C66.4825 109.214 66.5769 109.201 66.673 109.188C66.7378 109.181 66.8007 109.173 66.8654 109.164C67.1539 109.127 67.4442 109.092 67.7365 109.057C67.9122 109.035 68.086 109.016 68.2617 108.994C68.2654 108.992 68.2691 108.992 68.2709 108.992C68.3986 108.977 68.5262 108.962 68.6519 108.948C68.7795 108.933 68.9071 108.918 69.0348 108.903C69.29 108.874 69.5452 108.846 69.8023 108.816C69.8966 108.807 69.9909 108.796 70.0852 108.785C70.1518 108.777 70.2165 108.77 70.285 108.763C70.3183 108.759 70.3534 108.755 70.3867 108.752C70.4496 108.744 70.5124 108.739 70.5753 108.731C71.6406 108.617 72.7188 108.509 73.81 108.409C74.1262 108.382 74.4443 108.354 74.7624 108.324C74.8124 108.319 74.8623 108.315 74.9123 108.311C75.0288 108.302 75.149 108.291 75.2655 108.282C75.4319 108.267 75.6002 108.254 75.7704 108.241C76.0996 108.213 76.4288 108.188 76.7617 108.162C76.8357 108.156 76.9096 108.151 76.9855 108.145C76.9929 108.143 76.9965 108.143 77.0021 108.143C77.0779 108.136 77.1519 108.132 77.2277 108.126C77.5218 108.102 77.8177 108.082 78.1136 108.062C78.1155 108.062 78.1155 108.062 78.1173 108.062C78.1266 108.06 78.1377 108.06 78.1488 108.06C78.2856 108.051 78.4225 108.04 78.5593 108.03H78.5686C78.7295 108.019 78.8941 108.008 79.0568 107.997C79.6708 107.958 80.2904 107.919 80.9136 107.884C81.0024 107.879 81.0912 107.875 81.1818 107.869L81.2706 107.864C81.511 107.851 81.7533 107.838 81.9937 107.825C82.2341 107.812 82.4783 107.801 82.7205 107.788C83.3641 107.757 84.0059 107.731 84.6403 107.707C84.7272 107.703 84.8178 107.699 84.9066 107.697C85.171 107.688 85.4355 107.677 85.6981 107.67C85.7832 107.666 85.872 107.662 85.9571 107.662C86.1512 107.655 86.3454 107.651 86.5378 107.646C86.6987 107.64 86.8596 107.636 87.0205 107.633C87.174 107.627 87.3256 107.625 87.4773 107.622C87.7917 107.614 88.1005 107.607 88.4112 107.601C89.0345 107.588 89.6522 107.579 90.2644 107.574C92.4818 107.549 94.6494 107.566 96.7633 107.611C97.0481 107.618 97.3292 107.623 97.6103 107.631C102.271 107.751 106.665 108.025 110.765 108.395H110.771C111.004 108.417 111.235 108.437 111.464 108.459C111.464 108.467 111.59 109.303 111.847 110.766Z" fill="#AEC9FF"/>
<path d="M58.0825 110.473L59.3901 111.764C63.0852 115.409 67.1632 117.038 72.2251 116.888C74.2058 116.829 76.1163 116.58 77.901 116.143C82.5394 115.009 86.2734 112.67 88.9994 109.193L90.2626 107.582C87.8084 107.606 85.2932 107.676 82.7169 107.798C73.725 108.226 65.4747 109.211 58.0825 110.473Z" fill="white"/>
<path d="M61.1577 109.971C64.2833 113.056 67.7121 114.502 72.1507 114.373C76.3804 114.249 82.7406 113.098 87.0201 107.641C85.6053 107.678 84.1702 107.729 82.7184 107.8C74.9526 108.166 67.7417 108.952 61.1577 109.971Z" fill="#F2A89B"/>
<path d="M100.667 125.718C100.175 126.134 99.6723 126.539 99.1619 126.931C99.025 126.245 98.8105 125.135 98.5627 123.776C97.6712 118.888 96.3507 110.783 96.765 107.615C96.7705 107.58 96.7743 107.545 96.7798 107.512L97.612 107.636L98.472 107.763C98.0522 110.606 99.3745 118.669 100.257 123.511C100.41 124.362 100.551 125.113 100.667 125.718ZM60.4366 132.572L59.7228 132.847C59.3251 132.701 58.9293 132.546 58.5373 132.385C58.3357 131.83 58.0453 131.014 57.7106 130.001C56.2773 125.686 53.9932 117.787 53.9766 111.214V111.05L54.8347 111.053L55.6873 111.057C55.6669 117.351 57.9343 125.2 59.3436 129.465C59.9669 131.347 60.4218 132.533 60.4366 132.572Z" fill="#F0566E"/>
<path d="M103.355 123.238C102.498 124.106 101.601 124.932 100.667 125.718C100.175 126.134 99.6723 126.54 99.1619 126.932C92.2191 132.26 83.5305 135.428 74.104 135.428C69.0458 135.428 64.2003 134.516 59.7246 132.846C59.327 132.7 58.9312 132.545 58.5391 132.384C57.7605 132.067 56.9912 131.725 56.2366 131.359C56.0442 131.267 55.8501 131.171 55.6577 131.074C55.789 130.986 55.9259 130.9 56.0609 130.819C56.5898 130.501 57.141 130.231 57.7125 130C58.2395 129.789 58.7833 129.61 59.3455 129.462C64.8457 128.004 71.8698 129.358 79.2232 128.206C85.9847 127.15 92.4596 124.838 98.5627 123.775C99.1305 123.675 99.6964 123.586 100.257 123.51C101.302 123.373 102.334 123.277 103.355 123.238Z" fill="#F0566E"/>
<path d="M111.464 108.467C111.815 108.552 112.181 108.741 112.562 109.026C112.337 109.612 112.098 110.193 111.845 110.766C110.615 113.574 109.078 116.216 107.28 118.654C106.117 112.747 106.579 108.243 110.765 108.403H110.77C110.992 108.41 111.223 108.432 111.464 108.467Z" fill="#AEC9FF"/>
<path d="M0 11.3229V28.2342C0 34.3854 4.98606 39.3715 11.1354 39.3715V53.0388L24.8656 39.3715H104.865C111.014 39.3715 116 34.3854 116 28.2342V11.3229C116 5.17357 111.014 0.1875 104.865 0.1875H11.1354C4.98606 0.1875 0 5.17357 0 11.3229Z" fill="#FF7340"/>
<path d="M103.986 22.0181H104.787C106.022 22.0181 107.023 21.0176 107.023 19.7822C107.023 18.5468 106.02 17.5462 104.787 17.5462H103.986C102.751 17.5462 101.75 18.5486 101.75 19.7822C101.75 21.0158 102.751 22.0181 103.986 22.0181ZM91.1343 26.037C92.5917 26.037 93.7716 24.857 93.7716 23.3997V16.1628C93.7716 14.7055 92.5917 13.5255 91.1343 13.5255C89.677 13.5255 88.497 14.7055 88.497 16.1628V23.3997C88.497 24.857 89.677 26.037 91.1343 26.037ZM77.8813 30.0059C79.3387 30.0059 80.5186 28.8259 80.5186 27.3686V12.1939C80.5186 10.7366 79.3387 9.55664 77.8813 9.55664C76.424 9.55664 75.244 10.7366 75.244 12.1939V27.3686C75.244 28.8259 76.424 30.0059 77.8813 30.0059ZM64.6264 26.037C66.0838 26.037 67.2637 24.857 67.2637 23.3997V16.1628C67.2637 14.7055 66.0838 13.5255 64.6264 13.5255C63.1691 13.5255 61.9891 14.7055 61.9891 16.1628V23.3997C61.9891 24.857 63.1709 26.037 64.6264 26.037ZM51.3734 24.0266C52.8307 24.0266 54.0107 22.8467 54.0107 21.3893V18.1713C54.0107 16.714 52.8307 15.534 51.3734 15.534C49.916 15.534 48.7361 16.714 48.7361 18.1713V21.3893C48.7361 22.8467 49.9179 24.0266 51.3734 24.0266ZM38.1204 26.9302C39.5777 26.9302 40.7577 25.7503 40.7577 24.293V15.2696C40.7577 13.8122 39.5777 12.6323 38.1204 12.6323C36.663 12.6323 35.4831 13.8122 35.4831 15.2696V24.293C35.4831 25.7485 36.6649 26.9302 38.1204 26.9302ZM24.8674 30.0059C26.3247 30.0059 27.5046 28.8259 27.5046 27.3686V12.1939C27.5046 10.7366 26.3247 9.55664 24.8674 9.55664C23.41 9.55664 22.2301 10.7366 22.2301 12.1939V27.3686C22.2301 28.8259 23.4119 30.0059 24.8674 30.0059ZM11.6143 26.037C13.0717 26.037 14.2516 24.857 14.2516 23.3997V16.1628C14.2516 14.7055 13.0717 13.5255 11.6143 13.5255C10.157 13.5255 8.97705 14.7055 8.97705 16.1628V23.3997C8.97705 24.857 10.1588 26.037 11.6143 26.037Z" fill="white"/>
</svg>
